<?xml version="1.0" encoding="UTF-8"?>
<svg id="Layer_1" xmlns="http://www.w3.org/2000/svg" viewBox="0 0 1080 1080">
  <defs>
    <style>
      .cls-1 {
        fill: #f96;
      }
    </style>
  </defs>
  <g>
    <path class="cls-1" d="M846.27,290.32c-.38,7.74-4.44,27.41-4.44,27.41l-3.17,14.47c-.25,1.4-1.65,2.67-1.65,2.67-2.67,2.67-9.14,5.08-9.14,5.08-44.8,12.82-152.67,11.8-152.67,11.8l-59.52-.25c-23.48-.63-51.65-.89-80.33-1.02-51.9-.13-105.84.38-138.2.89-9.77-.63-19.16-.51-28.3.38-7.23.51-14.21,1.52-21.19,2.92-16.62,3.68-31.09,9.52-43.53,18.15-12.31,8.38-22.21,23.1-29.82,43.91-7.61,20.94-12.31,47.59-14.09,80.58,0,3.43-.25,8.38-.89,14.85-2.41,22.33-3.05,45.18-1.78,68.65,1.27,23.48,3.81,44.92,8,64.59,4.06,19.67,13.83,36.8,29.44,51.52,15.48,14.59,35.91,24.37,61.04,28.93,12.94,1.78,23.86,3.05,32.61,4.06,8.76.89,17.51.51,26.27-1.02,8.88-1.27,15.86-4.19,20.81-8.25,4.95-4.19,9.01-10.15,12.18-18.02,3.3-8,5.2-18.15,5.71-30.33.63-18.91.63-32.61-.38-41.37-.89-8.76-3.81-15.1-8.76-18.91-4.95-3.81-10.15-5.58-15.48-5.33-5.2.38-14.59,0-28.05-.89-13.45-.76-26.65-2.66-39.59-5.71-8.76-35.66-6.98-67.89,5.33-96.7,23.99-4.7,44.29-8,60.66-9.77,11.04-1.65,35.79-1.9,73.86-.38,38.07,1.52,60.66,5.46,67.77,11.93,10.53,9.9,15.23,50.13,14.09,120.43v62.94c0,6.73-.38,15.74-.89,27.16-.63,11.55-1.52,20.18-2.66,26.02-1.14,5.84-2.79,13.45-4.82,22.84-2.03,9.39-4.95,16.62-8.38,21.57-3.55,4.95-7.61,10.91-12.31,17.64-4.7,6.73-10.28,12.06-16.62,15.86-6.6,3.81-13.96,7.61-22.59,11.42-8.5,3.81-18.02,6.85-28.93,9.14-10.91,2.41-23.1,4.19-36.55,5.33-65.61,5.84-119.42,5.2-161.3-2.28-42.01-7.23-75.89-23.6-101.65-48.73-25.89-25.13-43.91-57.74-54.19-97.59-10.28-39.85-15.61-92.39-16.12-157.49.51-41.62,2.54-77.41,6.09-107.36,3.43-29.95,9.77-56.98,18.91-81.35,9.14-24.24,20.94-43.91,35.53-58.88,14.72-14.97,33.38-27.41,56.35-37.44,22.84-9.9,49.49-16.62,80.08-20.18,14.72-1.78,30.84-2.79,48.22-3.43l.38-.63c89.34-11.04,460.16,20.18,460.16,20.18,12.06.63,17.01,6.98,17.01,6.98,8.5,8.38,7.74,25.13,7.49,32.99Z"/>
    <path class="cls-1" d="M890.82,261.57l9.34-3.11c21.45-6.23,38.06-3.63,49.82,7.79,11.76,11.42,16.09,25.09,12.97,41-3.11,15.92-11.94,26.13-26.47,30.62-10.73,2.77-20.68,3.37-29.84,1.82-9.17-1.55-16.61-5.36-22.32-11.41-5.71-6.06-9.69-12.8-11.94-20.24-2.25-7.43-1.82-15.39,1.3-23.87,3.11-8.47,8.82-16,17.13-22.58Z"/>
  </g>
  <path class="cls-1" d="M638.27,537.98c0-46.44,11.15-80.98,33.46-103.59,22.31-22.62,56.99-33.92,104.05-33.92,141.4,3.67,141.08,92.25,138.77,207.24-.3,14.64-.91,20.96-4.67,35.05-65.98,12.67-112.42-3.82-164.87,4.45-25.35,4-26.76,4.67-30.61,30.5-16.87,113.01,93.29,138.57,118.43,52.22,11.37-39.06,22.62-42.92,67.42-36.29,11,1.63,13.31,5.84,14.52,18.26,4.74,48.93-20.22,106.37-68.07,126.88-55.53,23.81-156.65,19.41-190.72-41.83-25.22-45.35-17.71-145.82-17.71-200.31v-58.66ZM715.39,567c1.41,24.84-1.33,18.73,30.4,22.03,31.56,3.28,55.53,2.48,86.25-5.54,10.22-34.84,10.28-98.4-34.49-110.71-12.04-3.31-21.1-2.55-33.27-1.98-51.85,10.67-51.54,49.79-48.9,96.2Z"/>
</svg>