<?xml version="1.0" encoding="UTF-8"?>
<svg id="Layer_1" xmlns="http://www.w3.org/2000/svg" viewBox="0 0 512 512">
  <defs>
    <style>
      .cls-1 {
        fill: #f96;
      }
    </style>
  </defs>
  <g>
    <path class="cls-1" d="M154.77,207.21c-.04,1.08-.61,3.79-.61,3.79l-.44,1.98c-.03.19-.22.38-.22.38-.36.36-1.27.69-1.27.69-6.17,1.78-21.05,1.63-21.05,1.63l-8.21-.03c-3.24-.09-7.12-.13-11.09-.15-7.16-.01-14.61.06-19.06.12-1.36-.07-2.66-.06-3.91.06-1.01.07-1.97.22-2.92.41-2.31.5-4.3,1.31-6.01,2.5-1.69,1.17-3.06,3.2-4.11,6.07-1.05,2.87-1.71,6.57-1.94,11.1,0,.48-.04,1.17-.13,2.06-.32,3.08-.41,6.23-.23,9.47.16,3.24.53,6.2,1.09,8.92.55,2.71,1.91,5.08,4.06,7.11,2.14,2.01,4.96,3.36,8.43,4,1.78.25,3.28.42,4.49.55,1.21.12,2.42.07,3.63-.13,1.23-.19,2.17-.58,2.86-1.15.69-.57,1.25-1.39,1.69-2.48.45-1.09.71-2.5.79-4.19.09-2.6.07-4.49-.06-5.71-.12-1.21-.53-2.09-1.21-2.61-.69-.53-1.4-.77-2.13-.73-.71.04-2.01,0-3.88-.12-1.85-.12-3.68-.38-5.46-.79-1.21-4.93-.96-9.38.73-13.35,3.31-.64,6.11-1.09,8.38-1.34,1.53-.23,4.93-.26,10.2-.06,5.25.2,8.36.76,9.34,1.65,1.46,1.37,2.1,6.92,1.94,16.62v8.68c0,.92-.04,2.17-.12,3.75-.09,1.59-.2,2.77-.36,3.59-.16.8-.39,1.85-.67,3.15-.28,1.3-.67,2.29-1.15,2.98-.48.69-1.05,1.5-1.69,2.42-.66.93-1.43,1.66-2.31,2.19-.9.53-1.93,1.05-3.11,1.58-1.17.53-2.5.95-4,1.27-1.5.34-3.18.57-5.03.73-9.06.82-16.49.71-22.27-.31-5.79-1.01-10.46-3.25-14.02-6.73-3.56-3.47-6.06-7.97-7.47-13.47-1.42-5.5-2.16-12.75-2.23-21.73.07-5.75.36-10.68.85-14.81.48-4.13,1.36-7.86,2.61-11.22,1.25-3.36,2.89-6.07,4.9-8.13,2.03-2.07,4.61-3.79,7.78-5.17,3.15-1.37,6.83-2.31,11.05-2.79,2.03-.25,4.25-.39,6.65-.48l.04-.07c12.33-1.53,63.5,2.77,63.5,2.77,1.66.09,2.35.96,2.35.96,1.17,1.17,1.07,3.47,1.02,4.55Z"/>
    <path class="cls-1" d="M160.92,203.25l1.29-.43c2.96-.86,5.25-.5,6.87,1.07,1.62,1.58,2.22,3.46,1.79,5.66-.43,2.2-1.65,3.61-3.65,4.22-1.48.38-2.85.46-4.12.25-1.27-.21-2.29-.74-3.08-1.57-.79-.84-1.34-1.77-1.65-2.79-.31-1.03-.25-2.12.18-3.29.43-1.17,1.22-2.21,2.36-3.11Z"/>
  </g>
  <path class="cls-1" d="M126.07,241.39c0-6.41,1.54-11.17,4.62-14.29,3.08-3.12,7.86-4.68,14.36-4.68,19.51.51,19.47,12.73,19.15,28.59-.04,2.02-.13,2.89-.64,4.84-9.1,1.75-15.51-.53-22.75.61-3.5.55-3.69.64-4.22,4.21-2.33,15.59,12.87,19.12,16.34,7.2,1.57-5.39,3.12-5.92,9.3-5.01,1.52.23,1.84.81,2,2.52.65,6.75-2.79,14.68-9.39,17.51-7.66,3.29-21.61,2.68-26.31-5.77-3.48-6.26-2.44-20.12-2.44-27.64v-8.09ZM136.72,245.39c.2,3.43-.18,2.58,4.19,3.04,4.35.45,7.66.34,11.9-.76,1.41-4.81,1.42-13.58-4.76-15.28-1.66-.46-2.91-.35-4.59-.27-7.15,1.47-7.11,6.87-6.75,13.27Z"/>
  <path class="cls-1" d="M205.06,265.85c.27-3.54-.72-15.21,2.24-16.65,1.99-.97,6.25-.71,7.07,2.07,1.28,4.34.42,17.97-.61,22.65-2.79,10.43-12.97,12.16-22.41,10.12-15.42-4.1-12.71-19.31-12.66-31.97.07-4.36.93-15.45-1.41-18.78-1.9-1.58-13.37-1.11-10.3-7.35,4.26-5.11,11.72.31,11.66-7.16-.04-4.69-1.11-13.94,6.49-12.52,8.03,1.51-.4,14.33,10.5,16.93,3.37.81,3.58,4.24,3.15,7.25-.62,4.33-7.1.97-8.52,4.26-2.15,4.99-1.45,29.14.5,34.65,3.72,7.13,12.8,7.77,14.3-3.51Z"/>
  <path class="cls-1" d="M235.39,313.2c-10.81-1.08-15.62-8.2-15.55-18.74,0-1.12.44-5.24,1.16-6,1.21-1.28,6.96-1.26,8.16.07,1.81,2.02.11,17.5,12.23,14.63,7.34-1.74,5.82-10.86,5.81-16.86,0-3.59,0-7.18,0-10.77h-.51c-3.21,7.08-9.46,9.67-16.94,7.89-8.93-2.11-9.98-11.3-10.12-19.02v-25.8c0-4.81,1.18-8.71,3.54-11.7,4.43-4.98,13.2-6.23,18.75-2.22,5.5,3.98,5.05,10.39,6.18,3.92.1-.56.96-4.33,1.17-4.56.93-.97,5.42-.9,6.87-.6,1.7.35,1.18.09,1.65,2.49.97,4.96.29,19.43.29,25.46,0,14.33,0,28.66,0,42.99-.39,14.52-8.47,20.24-22.68,18.81ZM230.62,262.38c.11,6.34,1.38,12.96,9.46,11.32,1.55-.31,2.48-.85,3.63-1.9,4.95-5.35,3.85-9.54,3.87-16.39.02-8.39,2.33-26.53-11.74-23.08-6.64,1.63-5.23,9.92-5.23,15.43,0,4.87,0,9.74,0,14.62Z"/>
  <path class="cls-1" d="M276.07,204.58c3.9,13.92-12.78,14.92-10.34-.19.63-3.89,8.34-2.96,9.88-.75l.46.93ZM265.63,232.43c0-4.38.44-9.96,6.39-9.19,6.3.82,4.77,9.75,4.74,14.62-.08,12.68.13,25.45.03,38.07-.02,2.32.13,6.45-2.39,7.52-1.87.8-6.09.9-7.43-.38-1.96-1.88-1.22-19.92-1.24-23.56-.03-9.03-.07-18.06-.09-27.08Z"/>
  <path class="cls-1" d="M295.95,239.89c-1.59,14.02-.21,24.66-.32,38.23-.05,6.67-1.64,6.61-7.63,5.63-2.88-.59-2.66-.65-3.22-3.87-1.17-6.82-.27-20.78-.32-28.55-.04-5.88-.1-11.76-.17-17.64-.02-1.6.24-8.85,1.27-9.86.95-.92,7.05-.68,8.02.31,1.28,1.3,1.14,8.96,2.63,6.5,3.8-6.27,7.12-9.14,15.1-8.05,3.4.46,5.54,1.65,8.01,3.94,5.23,5.96,4.06,14.3,4.05,21.67,0,5.44.81,30.34-.39,33.76-.6,1.7-1.17,1.71-3.21,2.08-1.43.26-5.48.21-6.46-.77-1.92-1.92-.66-25.29-.67-29.99-.01-5.04.02-11.98-1.08-16.83-2.84-6.03-11.87-6.54-14.88.98l-.61,1.85-.12.62Z"/>
  <path class="cls-1" d="M346.07,313.2c-10.81-1.08-15.62-8.2-15.55-18.74,0-1.12.44-5.24,1.16-6,1.21-1.28,6.96-1.26,8.16.07,1.81,2.02.11,17.5,12.23,14.63,7.34-1.74,5.82-10.86,5.81-16.86,0-3.59,0-7.18,0-10.77h-.51c-3.21,7.08-9.46,9.67-16.94,7.89-8.93-2.11-9.98-11.3-10.12-19.02v-25.8c0-4.81,1.18-8.71,3.54-11.7,4.43-4.98,13.2-6.23,18.75-2.22,5.5,3.98,5.05,10.39,6.18,3.92.1-.56.96-4.33,1.17-4.56.93-.97,5.42-.9,6.87-.6,1.7.35,1.18.09,1.65,2.49.97,4.96.29,19.43.29,25.46,0,14.33,0,28.66,0,42.99-.39,14.52-8.47,20.24-22.68,18.81ZM341.3,262.38c.11,6.34,1.38,12.96,9.46,11.32,1.55-.31,2.48-.85,3.63-1.9,4.95-5.35,3.85-9.54,3.87-16.39.02-8.39,2.33-26.53-11.74-23.08-6.64,1.63-5.23,9.92-5.23,15.43,0,4.87,0,9.74,0,14.62Z"/>
  <path class="cls-1" d="M375.7,241.39c0-6.41,1.54-11.17,4.62-14.29,3.08-3.12,7.86-4.68,14.36-4.68,19.51.51,19.47,12.73,19.15,28.59-.04,2.02-.13,2.89-.64,4.84-9.1,1.75-15.51-.53-22.75.61-3.5.55-3.69.64-4.22,4.21-2.33,15.59,12.87,19.12,16.34,7.2,1.57-5.39,3.12-5.92,9.3-5.01,1.52.23,1.84.81,2,2.52.65,6.75-2.79,14.68-9.39,17.51-7.66,3.29-21.61,2.68-26.31-5.77-3.48-6.26-2.44-20.12-2.44-27.64v-8.09ZM386.34,245.39c.2,3.43-.18,2.58,4.19,3.04,4.35.45,7.66.34,11.9-.76,1.41-4.81,1.42-13.58-4.76-15.28-1.66-.46-2.91-.35-4.59-.27-7.15,1.47-7.11,6.87-6.75,13.27Z"/>
  <path class="cls-1" d="M419.76,241.39c0-6.41,1.54-11.17,4.62-14.29,3.08-3.12,7.86-4.68,14.36-4.68,19.51.51,19.47,12.73,19.15,28.59-.04,2.02-.13,2.89-.64,4.84-9.1,1.75-15.51-.53-22.75.61-3.5.55-3.69.64-4.22,4.21-2.33,15.59,12.87,19.12,16.34,7.2,1.57-5.39,3.12-5.92,9.3-5.01,1.52.23,1.84.81,2,2.52.65,6.75-2.79,14.68-9.39,17.51-7.66,3.29-21.61,2.68-26.31-5.77-3.48-6.26-2.44-20.12-2.44-27.64v-8.09ZM430.4,245.39c.2,3.43-.18,2.58,4.19,3.04,4.35.45,7.66.34,11.9-.76,1.41-4.81,1.42-13.58-4.76-15.28-1.66-.46-2.91-.35-4.59-.27-7.16,1.47-7.11,6.87-6.75,13.27Z"/>
</svg>