<?xml version="1.0" encoding="UTF-8"?>
<svg id="Layer_1" xmlns="http://www.w3.org/2000/svg" viewBox="0 0 1584 396">
  <defs>
    <style>
      .cls-1 {
        fill: #f96;
      }
    </style>
  </defs>
  <g>
    <path class="cls-1" d="M527.96,70.74c-.11,2.82-1.6,9.9-1.6,9.9l-1.14,5.18c-.08.49-.57.99-.57.99-.95.95-3.31,1.79-3.31,1.79-16.1,4.64-54.92,4.26-54.92,4.26l-21.43-.08c-8.45-.23-18.57-.34-28.92-.38-18.69-.04-38.1.15-49.7.3-3.54-.19-6.93-.15-10.2.15-2.63.19-5.14.57-7.61,1.07-6.01,1.29-11.23,3.43-15.68,6.51-4.41,3.04-7.99,8.33-10.73,15.83-2.74,7.5-4.45,17.13-5.06,28.96,0,1.26-.11,3.04-.34,5.37-.84,8.03-1.07,16.25-.61,24.7.42,8.45,1.37,16.17,2.85,23.25,1.45,7.08,4.99,13.24,10.58,18.53,5.59,5.25,12.94,8.75,22,10.43,4.64.65,8.56,1.1,11.72,1.45,3.16.3,6.32.19,9.48-.34,3.2-.49,5.67-1.52,7.46-3.01,1.79-1.48,3.27-3.62,4.41-6.47,1.18-2.85,1.86-6.51,2.06-10.92.23-6.77.19-11.72-.15-14.88-.3-3.16-1.37-5.44-3.16-6.81-1.79-1.37-3.65-2.02-5.56-1.9-1.86.11-5.25,0-10.12-.3-4.83-.3-9.59-.99-14.23-2.06-3.16-12.86-2.51-24.47,1.9-34.82,8.64-1.67,15.95-2.85,21.85-3.5,4-.61,12.86-.69,26.6-.15,13.7.53,21.81,1.98,24.36,4.3,3.81,3.58,5.48,18.04,5.06,43.35v22.64c0,2.4-.11,5.67-.3,9.78-.23,4.15-.53,7.23-.95,9.36-.42,2.09-1.03,4.83-1.75,8.22-.72,3.39-1.75,5.98-3.01,7.76-1.26,1.79-2.74,3.92-4.41,6.32-1.71,2.44-3.73,4.34-6.01,5.71-2.36,1.37-5.02,2.74-8.11,4.11-3.04,1.37-6.51,2.47-10.43,3.31-3.92.88-8.3,1.48-13.13,1.9-23.63,2.13-43.01,1.86-58.08-.8-15.11-2.63-27.29-8.49-36.57-17.54-9.29-9.06-15.79-20.78-19.49-35.13-3.69-14.35-5.63-33.26-5.82-56.67.19-14.99.95-27.86,2.21-38.63,1.26-10.77,3.54-20.51,6.81-29.27,3.27-8.75,7.54-15.83,12.79-21.2,5.29-5.4,12.03-9.9,20.28-13.47,8.22-3.58,17.81-6.01,28.81-7.27,5.29-.65,11.07-1.03,17.35-1.26l.11-.19c32.16-4,165.63,7.23,165.63,7.23,4.34.23,6.13,2.51,6.13,2.51,3.04,3.04,2.78,9.06,2.66,11.87Z"/>
    <path class="cls-1" d="M544.01,60.41l3.36-1.12c7.72-2.24,13.7-1.31,17.93,2.8,4.23,4.11,5.79,9.03,4.67,14.75-1.12,5.73-4.3,9.4-9.52,11.02-3.86,1-7.44,1.21-10.74.65-3.3-.56-5.98-1.93-8.03-4.11-2.05-2.18-3.49-4.6-4.3-7.28-.81-2.68-.65-5.54.47-8.59,1.12-3.05,3.18-5.76,6.16-8.12Z"/>
  </g>
  <path class="cls-1" d="M453.12,159.89c0-16.71,4.01-29.14,12.04-37.28,8.03-8.14,20.51-12.21,37.44-12.21,50.89,1.32,50.77,33.2,49.94,74.58-.11,5.27-.33,7.54-1.68,12.61-23.74,4.56-40.46-1.38-59.33,1.6-9.12,1.44-9.63,1.68-11.02,10.98-6.07,40.67,33.57,49.87,42.62,18.79,4.09-14.06,8.14-15.45,24.26-13.06,3.96.59,4.79,2.1,5.22,6.57,1.7,17.61-7.28,38.28-24.5,45.66-19.98,8.57-56.37,6.99-68.64-15.05-9.08-16.32-6.37-52.48-6.37-72.09v-21.11ZM480.87,170.33c.51,8.94-.48,6.74,10.94,7.93,11.36,1.18,19.98.89,31.04-1.99,3.68-12.54,3.7-35.41-12.41-39.84-4.33-1.19-7.59-.92-11.97-.71-18.66,3.84-18.55,17.92-17.6,34.62Z"/>
  <path class="cls-1" d="M659.14,223.7c.7-9.24-1.88-39.66,5.85-43.43,5.2-2.53,16.31-1.86,18.45,5.4,3.33,11.32,1.08,46.88-1.6,59.08-7.27,27.2-33.82,31.72-58.46,26.39-40.21-10.68-33.15-50.36-33.02-83.38.2-11.37,2.44-40.3-3.69-48.97-4.97-4.11-34.87-2.91-26.86-19.18,11.11-13.32,30.57.81,30.41-18.69-.1-12.24-2.9-36.37,16.93-32.65,20.94,3.93-1.05,37.37,27.39,44.17,8.79,2.1,9.34,11.06,8.21,18.92-1.61,11.3-18.51,2.52-22.21,11.11-5.61,13.01-3.77,76.01,1.3,90.38,9.72,18.6,33.39,20.26,37.3-9.16Z"/>
  <path class="cls-1" d="M738.24,347.19c-28.2-2.82-40.75-21.4-40.56-48.87.02-2.93,1.14-13.66,3.02-15.66,3.17-3.35,18.16-3.28,21.28.19,4.73,5.26.28,45.65,31.89,38.16,19.14-4.53,15.18-28.34,15.15-43.97-.02-9.36,0-18.72,0-28.09h-1.32c-8.36,18.47-24.68,25.21-44.2,20.59-23.3-5.52-26.03-29.47-26.4-49.62v-67.29c0-12.54,3.08-22.71,9.24-30.51,11.55-13,34.44-16.25,48.9-5.78,14.35,10.39,13.17,27.1,16.13,10.22.25-1.45,2.49-11.3,3.06-11.9,2.43-2.53,14.14-2.34,17.91-1.56,4.44.92,3.07.23,4.29,6.49,2.53,12.93.76,50.68.76,66.4,0,37.37,0,74.76,0,112.13-1.01,37.86-22.09,52.78-59.15,49.07ZM725.8,214.65c.29,16.55,3.6,33.79,24.67,29.53,4.05-.82,6.46-2.22,9.48-4.95,12.9-13.96,10.05-24.88,10.1-42.75.06-21.89,6.09-69.2-30.62-60.19-17.32,4.25-13.65,25.88-13.63,40.24,0,12.71,0,25.42,0,38.12Z"/>
  <path class="cls-1" d="M844.36,63.87c10.18,36.31-33.35,38.92-26.96-.49,1.64-10.13,21.74-7.72,25.76-1.95l1.2,2.44ZM817.12,136.52c-.02-11.42,1.14-25.98,16.67-23.96,16.42,2.13,12.44,25.44,12.35,38.15-.22,33.06.33,66.38.07,99.29-.05,6.04.33,16.82-6.25,19.63-4.87,2.08-15.89,2.35-19.38-1-5.11-4.9-3.19-51.95-3.22-61.46-.08-23.55-.18-47.1-.24-70.64Z"/>
  <path class="cls-1" d="M896.21,155.98c-4.13,36.57-.56,64.32-.83,99.72-.13,17.4-4.29,17.24-19.9,14.68-7.52-1.53-6.95-1.7-8.4-10.11-3.06-17.8-.72-54.2-.85-74.48-.1-15.33-.25-30.67-.44-46-.05-4.18.62-23.07,3.32-25.71,2.48-2.41,18.38-1.79,20.92.8,3.33,3.4,2.98,23.36,6.85,16.96,9.91-16.37,18.57-23.83,39.38-21.01,8.87,1.2,14.44,4.31,20.9,10.29,13.65,15.54,10.58,37.29,10.57,56.52.01,14.19,2.12,79.12-1.02,88.07-1.56,4.44-3.05,4.47-8.36,5.42-3.73.67-14.3.55-16.86-2.01-5-5.01-1.71-65.97-1.74-78.22-.03-13.14.06-31.26-2.82-43.91-7.42-15.74-30.96-17.06-38.82,2.55l-1.6,4.82-.32,1.62Z"/>
  <path class="cls-1" d="M1026.92,347.19c-28.2-2.82-40.75-21.4-40.56-48.87.02-2.93,1.14-13.66,3.02-15.66,3.17-3.35,18.16-3.28,21.28.19,4.73,5.26.28,45.65,31.89,38.16,19.14-4.53,15.18-28.34,15.15-43.97-.02-9.36,0-18.72,0-28.09h-1.32c-8.36,18.47-24.68,25.21-44.2,20.59-23.3-5.52-26.03-29.47-26.4-49.62v-67.29c0-12.54,3.08-22.71,9.24-30.51,11.55-13,34.44-16.25,48.9-5.78,14.35,10.39,13.17,27.1,16.13,10.22.25-1.45,2.49-11.3,3.06-11.9,2.43-2.53,14.14-2.34,17.91-1.56,4.44.92,3.07.23,4.29,6.49,2.53,12.93.76,50.68.76,66.4,0,37.37,0,74.76,0,112.13-1.01,37.86-22.09,52.78-59.15,49.07ZM1014.48,214.65c.29,16.55,3.6,33.79,24.67,29.53,4.05-.82,6.46-2.22,9.48-4.95,12.9-13.96,10.05-24.88,10.1-42.75.06-21.89,6.09-69.2-30.62-60.19-17.32,4.25-13.65,25.88-13.63,40.24,0,12.71,0,25.42,0,38.12Z"/>
  <path class="cls-1" d="M1104.22,159.89c0-16.71,4.01-29.14,12.04-37.28,8.03-8.14,20.51-12.21,37.44-12.21,50.89,1.32,50.77,33.2,49.94,74.58-.11,5.27-.33,7.54-1.68,12.61-23.74,4.56-40.46-1.38-59.33,1.6-9.12,1.44-9.63,1.68-11.02,10.98-6.07,40.67,33.57,49.87,42.62,18.79,4.09-14.06,8.14-15.45,24.26-13.06,3.96.59,4.79,2.1,5.22,6.57,1.7,17.61-7.28,38.28-24.5,45.66-19.98,8.57-56.37,6.99-68.64-15.05-9.08-16.32-6.37-52.48-6.37-72.09v-21.11ZM1131.98,170.33c.51,8.94-.48,6.74,10.94,7.93,11.36,1.18,19.98.89,31.04-1.99,3.68-12.54,3.7-35.41-12.41-39.84-4.33-1.19-7.59-.92-11.97-.71-18.66,3.84-18.55,17.92-17.6,34.62Z"/>
  <path class="cls-1" d="M1219.12,159.89c0-16.71,4.01-29.14,12.04-37.28,8.03-8.14,20.51-12.21,37.44-12.21,50.89,1.32,50.77,33.2,49.94,74.58-.11,5.27-.33,7.54-1.68,12.61-23.74,4.56-40.46-1.38-59.33,1.6-9.12,1.44-9.63,1.68-11.02,10.98-6.07,40.67,33.58,49.87,42.62,18.79,4.09-14.06,8.14-15.45,24.26-13.06,3.96.59,4.79,2.1,5.22,6.57,1.7,17.61-7.28,38.28-24.5,45.66-19.98,8.57-56.37,6.99-68.63-15.05-9.08-16.32-6.37-52.48-6.37-72.09v-21.11ZM1246.88,170.33c.51,8.94-.48,6.74,10.94,7.93,11.36,1.18,19.98.89,31.04-1.99,3.68-12.54,3.7-35.41-12.41-39.84-4.33-1.19-7.59-.92-11.97-.71-18.66,3.84-18.55,17.92-17.6,34.62Z"/>
</svg>