<?xml version="1.0" encoding="UTF-8"?>
<svg id="Layer_1" xmlns="http://www.w3.org/2000/svg" viewBox="0 0 48 48">
  <defs>
    <style>
      .cls-1 {
        fill: #f96;
      }
    </style>
  </defs>
  <g>
    <path class="cls-1" d="M36.97,13.43c-.02.33-.19,1.16-.19,1.16l-.13.61c-.01.06-.07.11-.07.11-.11.11-.39.21-.39.21-1.9.54-6.47.5-6.47.5h-2.52c-.99-.04-2.19-.05-3.4-.05-2.2,0-4.48.02-5.85.04-.41-.03-.81-.02-1.2.02-.31.02-.6.06-.9.12-.7.16-1.32.4-1.84.77-.52.35-.94.98-1.26,1.86-.32.89-.52,2.02-.6,3.41,0,.15-.01.35-.04.63-.1.95-.13,1.91-.08,2.91.05.99.16,1.9.34,2.74.17.83.59,1.56,1.25,2.18.66.62,1.52,1.03,2.58,1.23.55.08,1.01.13,1.38.17.37.04.74.02,1.11-.04.38-.05.67-.18.88-.35.21-.18.38-.43.52-.76.14-.34.22-.77.24-1.28.03-.8.03-1.38-.02-1.75-.04-.37-.16-.64-.37-.8-.21-.16-.43-.24-.66-.23-.22.02-.62,0-1.19-.04-.57-.03-1.13-.11-1.68-.24-.37-1.51-.3-2.88.23-4.1,1.02-.2,1.88-.34,2.57-.41.47-.07,1.52-.08,3.13-.02s2.57.23,2.87.51c.45.42.64,2.12.6,5.1v2.67c0,.28-.02.67-.04,1.15-.03.49-.06.85-.11,1.1-.05.25-.12.57-.2.97-.09.4-.21.7-.35.91-.15.21-.32.46-.52.75-.2.28-.44.51-.7.67-.28.16-.59.32-.96.48-.36.16-.76.29-1.23.39-.46.1-.98.18-1.55.23-2.78.25-5.06.22-6.83-.1-1.78-.31-3.21-1-4.3-2.06-1.1-1.06-1.86-2.45-2.29-4.13-.44-1.69-.66-3.91-.68-6.67.02-1.76.11-3.28.26-4.55.15-1.27.41-2.41.8-3.44.39-1.03.89-1.86,1.5-2.49.62-.63,1.41-1.16,2.39-1.59.97-.42,2.1-.7,3.39-.85.62-.08,1.31-.12,2.04-.15l.02-.03c3.78-.47,19.49.85,19.49.85.51.03.72.3.72.3.36.35.33,1.06.32,1.4Z"/>
    <path class="cls-1" d="M38.86,12.21l.4-.13c.91-.26,1.61-.15,2.11.33.5.48.68,1.06.55,1.74-.13.67-.51,1.11-1.12,1.3-.45.12-.88.14-1.26.08-.39-.07-.7-.23-.95-.48s-.41-.54-.51-.86c-.1-.31-.08-.65.05-1.01.13-.36.37-.68.73-.96Z"/>
  </g>
  <path class="cls-1" d="M28.16,23.91c0-1.97.47-3.43,1.42-4.39.94-.96,2.41-1.44,4.41-1.44,5.99.16,5.97,3.91,5.88,8.78-.01.62-.04.89-.2,1.48-2.79.54-4.76-.16-6.98.19-1.07.17-1.13.2-1.3,1.29-.71,4.79,3.95,5.87,5.02,2.21.48-1.65.96-1.82,2.85-1.54.47.07.56.25.61.77.2,2.07-.86,4.5-2.88,5.37-2.35,1.01-6.63.82-8.08-1.77-1.07-1.92-.75-6.18-.75-8.48v-2.48ZM31.43,25.14c.06,1.05-.06.79,1.29.93,1.34.14,2.35.1,3.65-.23.43-1.48.44-4.17-1.46-4.69-.51-.14-.89-.11-1.41-.08-2.2.45-2.18,2.11-2.07,4.07Z"/>
</svg>