<?xml version="1.0" encoding="UTF-8"?>
<svg id="Layer_1" xmlns="http://www.w3.org/2000/svg" viewBox="0 0 512 512">
  <defs>
    <style>
      .cls-1 {
        fill: #fcfbfa;
      }
    </style>
  </defs>
  <g>
    <path class="cls-1" d="M407.12,132.8c-.19,3.82-2.19,13.53-2.19,13.53l-1.57,7.14c-.13.69-.81,1.32-.81,1.32-1.32,1.32-4.51,2.5-4.51,2.5-22.1,6.32-75.33,5.82-75.33,5.82l-29.37-.13c-11.58-.31-25.49-.44-39.64-.5-25.61-.06-52.22.19-68.19.44-4.82-.31-9.46-.25-13.96.19-3.57.25-7.01.75-10.46,1.44-8.2,1.82-15.34,4.7-21.48,8.95-6.07,4.13-10.96,11.4-14.72,21.67-3.76,10.33-6.07,23.48-6.95,39.76,0,1.69-.13,4.13-.44,7.33-1.19,11.02-1.5,22.29-.88,33.88.63,11.58,1.88,22.17,3.95,31.87,2,9.71,6.83,18.16,14.53,25.42,7.64,7.2,17.72,12.02,30.12,14.28,6.39.88,11.77,1.5,16.09,2,4.32.44,8.64.25,12.96-.5,4.38-.63,7.83-2.07,10.27-4.07,2.44-2.07,4.45-5.01,6.01-8.89,1.63-3.95,2.57-8.95,2.82-14.97.31-9.33.31-16.09-.19-20.41-.44-4.32-1.88-7.45-4.32-9.33-2.44-1.88-5.01-2.76-7.64-2.63-2.57.19-7.2,0-13.84-.44-6.64-.38-13.15-1.31-19.54-2.82-4.32-17.6-3.44-33.5,2.63-47.72,11.84-2.32,21.85-3.95,29.93-4.82,5.45-.81,17.66-.94,36.44-.19,18.79.75,29.93,2.69,33.44,5.89,5.2,4.88,7.51,24.73,6.95,59.43v31.06c0,3.32-.19,7.76-.44,13.4-.31,5.7-.75,9.96-1.31,12.84-.56,2.88-1.38,6.64-2.38,11.27-1,4.63-2.44,8.2-4.13,10.65-1.75,2.44-3.76,5.39-6.07,8.7-2.32,3.32-5.07,5.95-8.2,7.83-3.26,1.88-6.89,3.76-11.15,5.64-4.2,1.88-8.89,3.38-14.28,4.51-5.39,1.19-11.4,2.07-18.03,2.63-32.37,2.88-58.92,2.57-79.59-1.13-20.73-3.57-37.45-11.65-50.16-24.05-12.77-12.4-21.67-28.49-26.74-48.15-5.07-19.66-7.7-45.59-7.95-77.71.25-20.54,1.25-38.2,3.01-52.98,1.69-14.78,4.82-28.12,9.33-40.14,4.51-11.96,10.33-21.67,17.53-29.06,7.26-7.39,16.47-13.53,27.8-18.47,11.27-4.88,24.42-8.2,39.51-9.96,7.26-.88,15.22-1.38,23.8-1.69l.19-.31c44.08-5.45,227.06,9.96,227.06,9.96,5.95.31,8.39,3.44,8.39,3.44,4.2,4.13,3.82,12.4,3.69,16.28Z"/>
    <path class="cls-1" d="M429.11,118.61l4.61-1.54c10.58-3.07,18.78-1.79,24.58,3.84,5.8,5.63,7.94,12.38,6.4,20.23-1.54,7.85-5.89,12.89-13.06,15.11-5.29,1.37-10.2,1.66-14.72.9-4.53-.77-8.19-2.64-11.01-5.63-2.82-2.99-4.78-6.31-5.89-9.99-1.11-3.67-.9-7.59.64-11.78,1.54-4.18,4.35-7.9,8.45-11.14Z"/>
  </g>
  <path class="cls-1" d="M304.49,255c0-22.92,5.5-39.96,16.51-51.11,11.01-11.16,28.12-16.74,51.34-16.74,69.77,1.81,69.61,45.52,68.48,102.26-.15,7.22-.45,10.34-2.31,17.3-32.56,6.25-55.47-1.89-81.35,2.2-12.51,1.97-13.21,2.31-15.1,15.05-8.32,55.76,46.03,68.38,58.44,25.76,5.61-19.27,11.16-21.18,33.27-17.91,5.43.81,6.57,2.88,7.16,9.01,2.34,24.14-9.98,52.49-33.59,62.61-27.4,11.75-77.29,9.58-94.11-20.64-12.45-22.38-8.74-71.95-8.74-98.84v-28.94ZM342.54,269.32c.7,12.26-.65,9.24,15,10.87,15.57,1.62,27.4,1.22,42.56-2.73,5.04-17.19,5.07-48.55-17.02-54.63-5.94-1.63-10.41-1.26-16.42-.98-25.59,5.26-25.43,24.57-24.13,47.47Z"/>
</svg>