<?xml version="1.0" encoding="UTF-8"?>
<svg id="Layer_1" xmlns="http://www.w3.org/2000/svg" viewBox="0 0 33 33">
  <defs>
    <style>
      .cls-1 {
        fill: #fcfbfa;
      }
    </style>
  </defs>
  <g>
    <path class="cls-1" d="M26.08,8.69c-.01.24-.14.86-.14.86l-.1.45s-.05.08-.05.08c-.08.08-.29.16-.29.16-1.4.4-4.77.37-4.77.37h-1.86c-.73-.03-1.62-.04-2.51-.04-1.62,0-3.31.01-4.32.03-.31-.02-.6-.02-.89.01-.23.02-.44.05-.66.09-.52.12-.97.3-1.36.57-.38.26-.69.72-.93,1.37-.24.65-.38,1.49-.44,2.52,0,.11,0,.26-.03.46-.08.7-.1,1.41-.06,2.15.04.73.12,1.4.25,2.02.13.62.43,1.15.92,1.61.48.46,1.12.76,1.91.9.4.06.75.1,1.02.13.27.03.55.02.82-.03.28-.04.5-.13.65-.26.15-.13.28-.32.38-.56.1-.25.16-.57.18-.95.02-.59.02-1.02-.01-1.29-.03-.27-.12-.47-.27-.59-.15-.12-.32-.17-.48-.17-.16.01-.46,0-.88-.03-.42-.02-.83-.08-1.24-.18-.27-1.12-.22-2.12.17-3.02.75-.15,1.39-.25,1.9-.31.35-.05,1.12-.06,2.31-.01s1.9.17,2.12.37c.33.31.48,1.57.44,3.77v1.97c0,.21-.01.49-.03.85-.02.36-.05.63-.08.81-.04.18-.09.42-.15.71-.06.29-.15.52-.26.67-.11.15-.24.34-.38.55-.15.21-.32.38-.52.5-.21.12-.44.24-.71.36-.27.12-.56.21-.9.29-.34.08-.72.13-1.14.17-2.05.18-3.73.16-5.04-.07-1.31-.23-2.37-.74-3.18-1.52-.81-.79-1.37-1.81-1.69-3.05-.32-1.25-.49-2.89-.5-4.93.02-1.3.08-2.42.19-3.36.11-.94.31-1.78.59-2.54.29-.76.65-1.37,1.11-1.84.46-.47,1.04-.86,1.76-1.17.71-.31,1.55-.52,2.5-.63.46-.06.96-.09,1.51-.11v-.02c2.81-.35,14.4.63,14.4.63.38.02.53.22.53.22.27.26.24.79.23,1.03Z"/>
    <path class="cls-1" d="M27.47,7.79l.29-.1c.67-.19,1.19-.11,1.56.24.37.36.5.78.41,1.28-.1.5-.37.82-.83.96-.34.09-.65.11-.93.06-.29-.05-.52-.17-.7-.36s-.3-.4-.37-.63c-.07-.23-.06-.48.04-.75.1-.26.28-.5.54-.71Z"/>
  </g>
  <path class="cls-1" d="M19.57,16.44c0-1.45.35-2.53,1.05-3.24.7-.71,1.78-1.06,3.25-1.06,4.42.11,4.41,2.89,4.34,6.48,0,.46-.03.66-.15,1.1-2.06.4-3.52-.12-5.16.14-.79.12-.84.15-.96.95-.53,3.53,2.92,4.33,3.7,1.63.36-1.22.71-1.34,2.11-1.13.34.05.42.18.45.57.15,1.53-.63,3.33-2.13,3.97-1.74.74-4.9.61-5.96-1.31-.79-1.42-.55-4.56-.55-6.26v-1.83ZM21.99,17.34c.04.78-.04.59.95.69.99.1,1.74.08,2.7-.17.32-1.09.32-3.08-1.08-3.46-.38-.1-.66-.08-1.04-.06-1.62.33-1.61,1.56-1.53,3.01Z"/>
</svg>