<?xml version="1.0" encoding="UTF-8"?>
<svg id="Layer_1" xmlns="http://www.w3.org/2000/svg" viewBox="0 0 1584 396">
  <defs>
    <style>
      .cls-1 {
        fill: #fcfbfa;
      }
    </style>
  </defs>
  <g>
    <path class="cls-1" d="M949.98,69.21c-.2,3.99-2.29,14.14-2.29,14.14l-1.64,7.46c-.13.72-.85,1.37-.85,1.37-1.37,1.37-4.71,2.62-4.71,2.62-23.11,6.61-78.75,6.09-78.75,6.09l-30.7-.13c-12.11-.33-26.64-.46-41.44-.52-26.77-.07-54.59.2-71.28.46-5.04-.33-9.88-.26-14.6.2-3.73.26-7.33.79-10.93,1.51-8.58,1.9-16.04,4.91-22.45,9.36-6.35,4.32-11.46,11.91-15.38,22.65-3.93,10.8-6.35,24.55-7.27,41.57,0,1.77-.13,4.32-.46,7.66-1.24,11.52-1.57,23.3-.92,35.41.65,12.11,1.96,23.17,4.12,33.32,2.09,10.15,7.14,18.98,15.19,26.58,7.99,7.53,18.52,12.57,31.49,14.92,6.68.92,12.31,1.57,16.82,2.09,4.52.46,9.03.26,13.55-.52,4.58-.65,8.18-2.16,10.74-4.25,2.55-2.16,4.65-5.24,6.28-9.3,1.7-4.12,2.68-9.36,2.95-15.64.33-9.75.33-16.82-.2-21.34-.46-4.52-1.96-7.79-4.52-9.75-2.55-1.96-5.24-2.88-7.99-2.75-2.68.2-7.53,0-14.47-.46-6.94-.39-13.75-1.37-20.42-2.95-4.52-18.39-3.6-35.02,2.75-49.88,12.37-2.42,22.84-4.12,31.29-5.04,5.69-.85,18.46-.98,38.1-.2,19.64.79,31.29,2.81,34.96,6.15,5.43,5.11,7.86,25.86,7.27,62.12v32.47c0,3.47-.2,8.12-.46,14.01-.33,5.96-.79,10.41-1.37,13.42-.59,3.01-1.44,6.94-2.49,11.78-1.05,4.84-2.55,8.58-4.32,11.13-1.83,2.55-3.93,5.63-6.35,9.1-2.42,3.47-5.3,6.22-8.58,8.18-3.4,1.96-7.2,3.93-11.65,5.89-4.39,1.96-9.29,3.54-14.92,4.71-5.63,1.24-11.91,2.16-18.85,2.75-33.84,3.01-61.6,2.68-83.2-1.18-21.67-3.73-39.14-12.18-52.43-25.14-13.35-12.96-22.65-29.78-27.95-50.34-5.3-20.55-8.05-47.65-8.31-81.23.26-21.47,1.31-39.93,3.14-55.38,1.77-15.45,5.04-29.39,9.75-41.96,4.71-12.5,10.8-22.65,18.33-30.37,7.59-7.72,17.22-14.14,29.06-19.31,11.78-5.11,25.53-8.58,41.3-10.41,7.59-.92,15.91-1.44,24.87-1.77l.2-.33c46.08-5.69,237.35,10.41,237.35,10.41,6.22.33,8.77,3.6,8.77,3.6,4.39,4.32,3.99,12.96,3.86,17.02Z"/>
    <path class="cls-1" d="M972.96,54.38l4.82-1.61c11.06-3.21,19.63-1.87,25.7,4.02,6.06,5.89,8.3,12.94,6.69,21.15-1.61,8.21-6.16,13.48-13.65,15.79-5.53,1.43-10.67,1.74-15.39.94-4.73-.8-8.57-2.76-11.51-5.89-2.94-3.12-5-6.6-6.16-10.44-1.16-3.83-.94-7.94.67-12.31,1.61-4.37,4.55-8.25,8.83-11.64Z"/>
  </g>
  <path class="cls-1" d="M842.69,196.96c0-23.96,5.75-41.77,17.26-53.43,11.51-11.67,29.4-17.5,53.67-17.5,72.93,1.89,72.77,47.59,71.58,106.9-.15,7.55-.47,10.81-2.41,18.08-34.03,6.54-57.99-1.97-85.04,2.3-13.08,2.06-13.8,2.41-15.79,15.73-8.7,58.29,48.12,71.48,61.09,26.93,5.86-20.15,11.67-22.14,34.77-18.72,5.68.84,6.87,3.01,7.49,9.42,2.44,25.24-10.43,54.87-35.11,65.45-28.64,12.28-80.8,10.01-98.38-21.58-13.01-23.39-9.13-75.21-9.13-103.32v-30.26ZM882.47,211.92c.73,12.81-.68,9.66,15.68,11.37,16.28,1.69,28.64,1.28,44.49-2.86,5.27-17.97,5.3-50.76-17.79-57.11-6.21-1.71-10.89-1.31-17.16-1.02-26.75,5.5-26.59,25.68-25.22,49.62Z"/>
</svg>