<?xml version="1.0" encoding="UTF-8"?>
<svg id="Layer_1" xmlns="http://www.w3.org/2000/svg" viewBox="0 0 1024 1024">
  <defs>
    <style>
      .cls-1 {
        fill: #fcfbfa;
      }
    </style>
  </defs>
  <g>
    <path class="cls-1" d="M800.5,276.81c-.36,7.29-4.18,25.82-4.18,25.82l-2.99,13.63c-.24,1.32-1.55,2.51-1.55,2.51-2.51,2.51-8.61,4.78-8.61,4.78-42.2,12.07-143.81,11.12-143.81,11.12l-56.06-.24c-22.11-.6-48.65-.84-75.67-.96-48.89-.12-99.7.36-130.18.84-9.2-.6-18.05-.48-26.66.36-6.81.48-13.39,1.43-19.96,2.75-15.66,3.47-29.29,8.97-41,17.09-11.6,7.89-20.92,21.76-28.09,41.36-7.17,19.72-11.6,44.83-13.27,75.91,0,3.23-.24,7.89-.84,13.99-2.27,21.04-2.87,42.56-1.67,64.67,1.2,22.11,3.59,42.32,7.53,60.85,3.83,18.53,13.03,34.67,27.73,48.53,14.58,13.75,33.83,22.95,57.5,27.25,12.19,1.67,22.47,2.87,30.72,3.83,8.25.84,16.5.48,24.75-.96,8.37-1.2,14.94-3.94,19.6-7.77,4.66-3.95,8.49-9.56,11.48-16.98,3.11-7.53,4.9-17.09,5.38-28.57.6-17.81.6-30.72-.36-38.97-.84-8.25-3.59-14.23-8.25-17.81-4.66-3.59-9.56-5.26-14.58-5.02-4.9.36-13.75,0-26.42-.84-12.67-.72-25.1-2.51-37.3-5.38-8.25-33.59-6.58-63.95,5.02-91.09,22.59-4.42,41.72-7.53,57.14-9.2,10.4-1.55,33.71-1.79,69.57-.36,35.86,1.43,57.14,5.14,63.84,11.24,9.92,9.32,14.35,47.22,13.27,113.44v59.29c0,6.34-.36,14.82-.84,25.58-.6,10.88-1.43,19.01-2.51,24.51-1.08,5.5-2.63,12.67-4.54,21.52-1.91,8.85-4.66,15.66-7.89,20.32-3.35,4.66-7.17,10.28-11.6,16.62-4.42,6.34-9.68,11.36-15.66,14.94-6.22,3.59-13.15,7.17-21.28,10.76-8.01,3.59-16.97,6.46-27.25,8.61-10.28,2.27-21.76,3.95-34.43,5.02-61.8,5.5-112.49,4.9-151.94-2.15-39.57-6.81-71.49-22.23-95.75-45.9-24.39-23.67-41.36-54.39-51.04-91.93-9.68-37.54-14.7-87.03-15.18-148.35.48-39.21,2.39-72.92,5.74-101.13,3.23-28.21,9.2-53.67,17.81-76.63,8.61-22.83,19.72-41.36,33.47-55.47,13.87-14.11,31.44-25.82,53.08-35.26,21.52-9.32,46.62-15.66,75.43-19.01,13.87-1.67,29.05-2.63,45.43-3.23l.36-.6c84.16-10.4,433.46,19.01,433.46,19.01,11.36.6,16.02,6.57,16.02,6.57,8.01,7.89,7.29,23.67,7.05,31.08Z"/>
    <path class="cls-1" d="M842.47,249.72l8.8-2.93c20.2-5.87,35.85-3.42,46.93,7.34,11.07,10.76,15.15,23.63,12.22,38.62-2.93,14.99-11.24,24.61-24.93,28.84-10.1,2.61-19.48,3.17-28.11,1.71-8.64-1.46-15.64-5.05-21.02-10.75-5.38-5.71-9.13-12.05-11.24-19.07-2.12-7-1.71-14.5,1.22-22.49,2.93-7.98,8.31-15.07,16.13-21.27Z"/>
  </g>
  <path class="cls-1" d="M604.57,510.09c0-43.75,10.51-76.28,31.52-97.58,21.01-21.3,53.68-31.95,98.01-31.95,133.19,3.46,132.9,86.9,130.72,195.22-.28,13.79-.86,19.75-4.4,33.02-62.15,11.94-105.9-3.6-155.3,4.19-23.88,3.76-25.21,4.4-28.83,28.73-15.89,106.45,87.88,130.53,111.56,49.19,10.71-36.79,21.3-40.43,63.51-34.18,10.37,1.54,12.54,5.5,13.67,17.2,4.46,46.09-19.04,100.19-64.12,119.52-52.31,22.43-147.56,18.28-179.65-39.4-23.76-42.72-16.68-137.36-16.68-188.69v-55.26ZM677.21,537.43c1.33,23.4-1.25,17.65,28.64,20.75,29.72,3.09,52.3,2.33,81.25-5.22,9.63-32.82,9.68-92.69-32.49-104.29-11.34-3.12-19.88-2.4-31.34-1.87-48.84,10.05-48.55,46.9-46.06,90.62Z"/>
</svg>