<?xml version="1.0" encoding="UTF-8"?>
<svg id="Layer_1" xmlns="http://www.w3.org/2000/svg" viewBox="0 0 500 500">
  <defs>
    <style>
      .cls-1 {
        fill: #fcfbfa;
      }
    </style>
  </defs>
  <g>
    <path class="cls-1" d="M385.79,139.3c-.17,3.43-1.97,12.15-1.97,12.15l-1.41,6.41c-.11.62-.73,1.18-.73,1.18-1.18,1.18-4.05,2.25-4.05,2.25-19.86,5.68-67.69,5.23-67.69,5.23l-26.39-.11c-10.41-.28-22.9-.39-35.62-.45-23.01-.06-46.92.17-61.27.39-4.33-.28-8.5-.22-12.55.17-3.21.22-6.3.68-9.4,1.29-7.37,1.63-13.78,4.22-19.3,8.05-5.46,3.71-9.85,10.24-13.22,19.47-3.38,9.28-5.46,21.1-6.25,35.73,0,1.52-.11,3.71-.39,6.58-1.07,9.9-1.35,20.03-.79,30.44.56,10.41,1.69,19.92,3.54,28.64,1.8,8.72,6.13,16.32,13.05,22.84,6.86,6.47,15.92,10.8,27.06,12.83,5.74.79,10.58,1.35,14.46,1.8,3.88.39,7.76.22,11.65-.45,3.94-.56,7.03-1.86,9.23-3.66,2.19-1.86,3.99-4.5,5.4-7.99,1.46-3.54,2.31-8.05,2.53-13.45.28-8.38.28-14.46-.17-18.34-.39-3.88-1.69-6.7-3.88-8.38-2.19-1.69-4.5-2.48-6.86-2.36-2.31.17-6.47,0-12.43-.39-5.96-.34-11.82-1.18-17.55-2.53-3.88-15.81-3.09-30.1,2.36-42.87,10.63-2.08,19.64-3.54,26.89-4.33,4.89-.73,15.87-.84,32.75-.17,16.88.68,26.89,2.42,30.05,5.29,4.67,4.39,6.75,22.22,6.25,53.39v27.91c0,2.98-.17,6.98-.39,12.04-.28,5.12-.68,8.95-1.18,11.53-.51,2.59-1.24,5.96-2.14,10.13-.9,4.16-2.19,7.37-3.71,9.56-1.58,2.19-3.38,4.84-5.46,7.82-2.08,2.98-4.56,5.35-7.37,7.03-2.93,1.69-6.19,3.38-10.02,5.06-3.77,1.69-7.99,3.04-12.83,4.05-4.84,1.07-10.24,1.86-16.2,2.36-29.09,2.59-52.94,2.31-71.51-1.01-18.62-3.21-33.65-10.47-45.07-21.61-11.48-11.14-19.47-25.6-24.02-43.27-4.56-17.67-6.92-40.96-7.15-69.82.22-18.45,1.13-34.32,2.7-47.6,1.52-13.28,4.33-25.26,8.38-36.07,4.05-10.75,9.28-19.47,15.75-26.11,6.53-6.64,14.8-12.15,24.98-16.6,10.13-4.39,21.94-7.37,35.5-8.95,6.53-.79,13.67-1.24,21.38-1.52l.17-.28c39.61-4.89,204.01,8.95,204.01,8.95,5.35.28,7.54,3.09,7.54,3.09,3.77,3.71,3.43,11.14,3.32,14.63Z"/>
    <path class="cls-1" d="M405.54,126.55l4.14-1.38c9.51-2.76,16.87-1.61,22.09,3.45,5.21,5.06,7.13,11.12,5.75,18.18-1.38,7.06-5.29,11.58-11.73,13.58-4.76,1.23-9.17,1.49-13.23.81-4.07-.69-7.36-2.37-9.89-5.06-2.53-2.69-4.3-5.67-5.29-8.97-1-3.3-.81-6.82.58-10.58,1.38-3.76,3.91-7.09,7.59-10.01Z"/>
  </g>
  <path class="cls-1" d="M293.57,249.1c0-20.59,4.95-35.9,14.84-45.93,9.89-10.03,25.27-15.04,46.13-15.04,62.69,1.63,62.55,40.9,61.53,91.88-.13,6.49-.41,9.29-2.07,15.54-29.25,5.62-49.84-1.69-73.09,1.97-11.24,1.77-11.87,2.07-13.57,13.52-7.48,50.1,41.36,61.44,52.51,23.15,5.04-17.32,10.03-19.03,29.89-16.09,4.88.72,5.9,2.59,6.44,8.1,2.1,21.69-8.96,47.16-30.18,56.25-24.62,10.56-69.45,8.61-84.56-18.55-11.18-20.11-7.85-64.65-7.85-88.81v-26.01ZM327.76,261.97c.63,11.01-.59,8.31,13.48,9.77,13.99,1.46,24.62,1.1,38.24-2.46,4.53-15.45,4.56-43.63-15.29-49.09-5.34-1.47-9.36-1.13-14.75-.88-22.99,4.73-22.85,22.07-21.68,42.65Z"/>
</svg>