<?xml version="1.0" encoding="UTF-8"?>
<svg id="Layer_1" xmlns="http://www.w3.org/2000/svg" viewBox="0 0 192 192">
  <defs>
    <style>
      .cls-1 {
        fill: #fcfbfa;
      }
    </style>
  </defs>
  <g>
    <path class="cls-1" d="M151.74,50.56c-.07,1.41-.81,4.99-.81,4.99l-.58,2.63c-.05.25-.3.49-.3.49-.49.49-1.66.92-1.66.92-8.15,2.33-27.78,2.15-27.78,2.15l-10.83-.05c-4.27-.12-9.4-.16-14.62-.18-9.45-.02-19.26.07-25.15.16-1.78-.12-3.49-.09-5.15.07-1.32.09-2.59.28-3.86.53-3.03.67-5.66,1.73-7.92,3.3-2.24,1.52-4.04,4.2-5.43,7.99-1.39,3.81-2.24,8.66-2.56,14.67,0,.62-.05,1.52-.16,2.7-.44,4.06-.55,8.22-.32,12.5.23,4.27.69,8.18,1.46,11.76.74,3.58,2.52,6.7,5.36,9.38,2.82,2.66,6.54,4.43,11.11,5.27,2.36.32,4.34.55,5.94.74,1.59.16,3.19.09,4.78-.18,1.62-.23,2.89-.76,3.79-1.5.9-.76,1.64-1.85,2.22-3.28.6-1.46.95-3.3,1.04-5.52.12-3.44.12-5.94-.07-7.53-.16-1.59-.69-2.75-1.59-3.44-.9-.69-1.85-1.02-2.82-.97-.95.07-2.66,0-5.1-.16-2.45-.14-4.85-.48-7.21-1.04-1.59-6.49-1.27-12.36.97-17.6,4.37-.85,8.06-1.46,11.04-1.78,2.01-.3,6.51-.35,13.44-.07,6.93.28,11.04.99,12.33,2.17,1.92,1.8,2.77,9.12,2.56,21.92v11.46c0,1.22-.07,2.86-.16,4.94-.12,2.1-.28,3.67-.48,4.73-.21,1.06-.51,2.45-.88,4.16-.37,1.71-.9,3.03-1.52,3.93-.65.9-1.39,1.99-2.24,3.21-.85,1.22-1.87,2.19-3.03,2.89-1.2.69-2.54,1.39-4.11,2.08-1.55.69-3.28,1.25-5.27,1.66-1.99.44-4.2.76-6.65.97-11.94,1.06-21.73.95-29.36-.42-7.64-1.32-13.81-4.3-18.5-8.87-4.71-4.57-7.99-10.51-9.86-17.76-1.87-7.25-2.84-16.81-2.93-28.66.09-7.58.46-14.09,1.11-19.54.62-5.45,1.78-10.37,3.44-14.8,1.66-4.41,3.81-7.99,6.47-10.72,2.68-2.73,6.07-4.99,10.25-6.81,4.16-1.8,9.01-3.03,14.57-3.67,2.68-.32,5.61-.51,8.78-.62l.07-.12c16.26-2.01,83.75,3.67,83.75,3.67,2.19.12,3.09,1.27,3.09,1.27,1.55,1.52,1.41,4.57,1.36,6.01Z"/>
    <path class="cls-1" d="M159.85,45.33l1.7-.57c3.9-1.13,6.93-.66,9.07,1.42,2.14,2.08,2.93,4.57,2.36,7.46-.57,2.9-2.17,4.76-4.82,5.57-1.95.5-3.76.61-5.43.33-1.67-.28-3.02-.97-4.06-2.08-1.04-1.1-1.76-2.33-2.17-3.68-.41-1.35-.33-2.8.24-4.34.57-1.54,1.61-2.91,3.12-4.11Z"/>
  </g>
  <path class="cls-1" d="M113.88,95.63c0-8.45,2.03-14.74,6.09-18.85,4.06-4.12,10.37-6.17,18.94-6.17,25.73.67,25.68,16.79,25.26,37.72-.05,2.66-.17,3.82-.85,6.38-12.01,2.31-20.46-.7-30.01.81-4.61.73-4.87.85-5.57,5.55-3.07,20.57,16.98,25.22,21.55,9.5,2.07-7.11,4.12-7.81,12.27-6.6,2,.3,2.42,1.06,2.64,3.32.86,8.9-3.68,19.36-12.39,23.09-10.11,4.33-28.51,3.53-34.71-7.61-4.59-8.25-3.22-26.54-3.22-36.46v-10.68ZM127.92,100.91c.26,4.52-.24,3.41,5.53,4.01,5.74.6,10.11.45,15.7-1.01,1.86-6.34,1.87-17.91-6.28-20.15-2.19-.6-3.84-.46-6.06-.36-9.44,1.94-9.38,9.06-8.9,17.51Z"/>
</svg>