<?xml version="1.0" encoding="UTF-8"?>
<svg id="Layer_1" xmlns="http://www.w3.org/2000/svg" viewBox="0 0 64 64">
  <defs>
    <style>
      .cls-1 {
        fill: #fcfbfa;
      }
    </style>
  </defs>
  <g>
    <path class="cls-1" d="M50.18,17.18c-.02.46-.26,1.63-.26,1.63l-.19.86c-.02.08-.1.16-.1.16-.16.16-.54.3-.54.3-2.66.76-9.06.7-9.06.7l-3.53-.02c-1.39-.04-3.07-.05-4.77-.06-3.08,0-6.28.02-8.2.05-.58-.04-1.14-.03-1.68.02-.43.03-.84.09-1.26.17-.99.22-1.85.56-2.58,1.08-.73.5-1.32,1.37-1.77,2.61-.45,1.24-.73,2.82-.84,4.78,0,.2-.02.5-.05.88-.14,1.33-.18,2.68-.11,4.08.08,1.39.23,2.67.47,3.83.24,1.17.82,2.18,1.75,3.06.92.87,2.13,1.45,3.62,1.72.77.11,1.42.18,1.94.24.52.05,1.04.03,1.56-.06.53-.08.94-.25,1.24-.49.29-.25.53-.6.72-1.07.2-.47.31-1.08.34-1.8.04-1.12.04-1.94-.02-2.46-.05-.52-.23-.9-.52-1.12-.29-.23-.6-.33-.92-.32-.31.02-.87,0-1.66-.05-.8-.05-1.58-.16-2.35-.34-.52-2.12-.41-4.03.32-5.74,1.42-.28,2.63-.47,3.6-.58.66-.1,2.12-.11,4.38-.02s3.6.32,4.02.71c.63.59.9,2.98.84,7.15v3.74c0,.4-.02.93-.05,1.61-.04.69-.09,1.2-.16,1.54-.07.35-.17.8-.29,1.36-.12.56-.29.99-.5,1.28-.21.29-.45.65-.73,1.05-.28.4-.61.72-.99.94-.39.23-.83.45-1.34.68-.5.23-1.07.41-1.72.54-.65.14-1.37.25-2.17.32-3.89.35-7.09.31-9.57-.14-2.49-.43-4.5-1.4-6.03-2.89-1.54-1.49-2.61-3.43-3.22-5.79-.61-2.37-.93-5.48-.96-9.35.03-2.47.15-4.6.36-6.37.2-1.78.58-3.38,1.12-4.83.54-1.44,1.24-2.61,2.11-3.5.87-.89,1.98-1.63,3.34-2.22,1.36-.59,2.94-.99,4.75-1.2.87-.11,1.83-.17,2.86-.2l.02-.04c5.3-.66,27.32,1.2,27.32,1.2.72.04,1.01.41,1.01.41.5.5.46,1.49.44,1.96Z"/>
    <path class="cls-1" d="M52.83,15.47l.55-.18c1.27-.37,2.26-.22,2.96.46.7.68.95,1.49.77,2.43-.18.94-.71,1.55-1.57,1.82-.64.16-1.23.2-1.77.11-.54-.09-.99-.32-1.32-.68s-.58-.76-.71-1.2c-.13-.44-.11-.91.08-1.42.18-.5.52-.95,1.02-1.34Z"/>
  </g>
  <path class="cls-1" d="M37.83,31.88c0-2.76.66-4.81,1.99-6.15,1.32-1.34,3.38-2.01,6.18-2.01,8.39.22,8.37,5.48,8.24,12.3-.02.87-.05,1.24-.28,2.08-3.92.75-6.67-.23-9.79.26-1.5.24-1.59.28-1.82,1.81-1,6.71,5.54,8.23,7.03,3.1.67-2.32,1.34-2.55,4-2.15.65.1.79.35.86,1.08.28,2.9-1.2,6.31-4.04,7.53-3.3,1.41-9.3,1.15-11.32-2.48-1.5-2.69-1.05-8.66-1.05-11.89v-3.48ZM42.41,33.6c.08,1.47-.08,1.11,1.8,1.31,1.87.19,3.3.15,5.12-.33.61-2.07.61-5.84-2.05-6.57-.71-.2-1.25-.15-1.97-.12-3.08.63-3.06,2.96-2.9,5.71Z"/>
</svg>