<?xml version="1.0" encoding="UTF-8"?>
<svg id="Layer_1" xmlns="http://www.w3.org/2000/svg" viewBox="0 0 300 300">
  <defs>
    <style>
      .cls-1 {
        fill: #fcfbfa;
      }
    </style>
  </defs>
  <g>
    <path class="cls-1" d="M89.38,120.78c-.03.65-.37,2.27-.37,2.27l-.26,1.19c-.02.11-.13.23-.13.23-.22.22-.76.41-.76.41-3.7,1.07-12.61.98-12.61.98l-4.92-.02c-1.94-.05-4.26-.08-6.64-.09-4.29,0-8.75.03-11.41.07-.81-.04-1.59-.03-2.34.03-.6.04-1.18.13-1.75.24-1.38.3-2.58.79-3.6,1.49-1.01.7-1.83,1.91-2.46,3.64-.63,1.72-1.02,3.93-1.16,6.65,0,.29-.03.7-.08,1.23-.19,1.84-.24,3.73-.14,5.67.1,1.94.31,3.71.66,5.34.33,1.63,1.14,3.04,2.43,4.26,1.28,1.21,2.97,2.01,5.05,2.39,1.07.15,1.97.25,2.69.33.73.07,1.45.04,2.18-.08.73-.11,1.3-.35,1.71-.69.41-.34.75-.83,1.01-1.49.27-.66.43-1.49.47-2.51.05-1.56.04-2.69-.03-3.42-.07-.73-.31-1.25-.73-1.56-.41-.31-.84-.46-1.28-.44-.43.03-1.21,0-2.32-.07-1.11-.07-2.2-.23-3.27-.47-.73-2.95-.58-5.62.44-8,1.98-.38,3.66-.66,5.02-.8.92-.14,2.95-.16,6.11-.03,3.15.12,5.01.45,5.59.99.87.82,1.26,4.14,1.16,9.95v5.2c0,.55-.03,1.3-.07,2.25-.05.95-.12,1.66-.22,2.15-.1.48-.24,1.11-.4,1.89-.17.78-.4,1.37-.69,1.78-.29.41-.63.9-1.01,1.45-.39.56-.86,1-1.38,1.31-.54.31-1.15.63-1.86.94-.7.31-1.49.57-2.39.76-.9.2-1.9.34-3.01.44-5.43.49-9.87.43-13.33-.18-3.47-.6-6.27-1.95-8.4-4.03-2.13-2.08-3.63-4.77-4.47-8.07-.85-3.29-1.29-7.64-1.34-13.01.04-3.44.22-6.4.51-8.87.29-2.47.81-4.71,1.56-6.72.75-2.01,1.73-3.64,2.94-4.87,1.21-1.24,2.76-2.27,4.66-3.09,1.89-.82,4.09-1.38,6.61-1.67,1.21-.15,2.54-.24,3.98-.29l.03-.04c7.38-.92,38.03,1.66,38.03,1.66,1,.05,1.41.58,1.41.58.7.7.64,2.08.61,2.73Z"/>
    <path class="cls-1" d="M93.06,118.41l.77-.26c1.77-.51,3.14-.3,4.12.64.97.94,1.33,2.07,1.07,3.39-.26,1.32-.99,2.16-2.19,2.53-.89.23-1.71.28-2.47.15-.76-.13-1.37-.44-1.84-.94-.47-.5-.8-1.06-.99-1.67-.19-.61-.15-1.27.11-1.97.26-.7.73-1.32,1.42-1.87Z"/>
  </g>
  <path class="cls-1" d="M72.19,141.25c0-3.84.92-6.69,2.76-8.56,1.84-1.87,4.71-2.8,8.6-2.8,11.68.3,11.66,7.62,11.47,17.12-.02,1.21-.08,1.73-.39,2.9-5.45,1.05-9.29-.32-13.62.37-2.09.33-2.21.39-2.53,2.52-1.39,9.34,7.71,11.45,9.79,4.31.94-3.23,1.87-3.55,5.57-3,.91.13,1.1.48,1.2,1.51.39,4.04-1.67,8.79-5.62,10.48-4.59,1.97-12.94,1.6-15.76-3.46-2.08-3.75-1.46-12.05-1.46-16.55v-4.85ZM78.56,143.65c.12,2.05-.11,1.55,2.51,1.82,2.61.27,4.59.2,7.13-.46.84-2.88.85-8.13-2.85-9.15-.99-.27-1.74-.21-2.75-.16-4.28.88-4.26,4.11-4.04,7.95Z"/>
  <path class="cls-1" d="M119.5,155.9c.16-2.12-.43-9.11,1.34-9.97,1.19-.58,3.74-.43,4.24,1.24.77,2.6.25,10.76-.37,13.56-1.67,6.25-7.77,7.28-13.42,6.06-9.23-2.45-7.61-11.56-7.58-19.14.04-2.61.56-9.25-.85-11.24-1.14-.94-8.01-.67-6.17-4.4,2.55-3.06,7.02.19,6.98-4.29-.02-2.81-.67-8.35,3.89-7.5,4.81.9-.24,8.58,6.29,10.14,2.02.48,2.14,2.54,1.89,4.34-.37,2.59-4.25.58-5.1,2.55-1.29,2.99-.87,17.45.3,20.75,2.23,4.27,7.67,4.65,8.56-2.1Z"/>
  <path class="cls-1" d="M137.66,184.25c-6.48-.65-9.36-4.91-9.31-11.22,0-.67.26-3.14.69-3.6.73-.77,4.17-.75,4.89.04,1.09,1.21.06,10.48,7.32,8.76,4.39-1.04,3.49-6.51,3.48-10.09,0-2.15,0-4.3,0-6.45h-.3c-1.92,4.24-5.67,5.79-10.15,4.73-5.35-1.27-5.98-6.77-6.06-11.39v-15.45c0-2.88.71-5.21,2.12-7.01,2.65-2.98,7.91-3.73,11.23-1.33,3.29,2.38,3.02,6.22,3.7,2.35.06-.33.57-2.59.7-2.73.56-.58,3.25-.54,4.11-.36,1.02.21.71.05.99,1.49.58,2.97.17,11.64.17,15.25,0,8.58,0,17.16,0,25.75-.23,8.69-5.07,12.12-13.58,11.27ZM134.8,153.82c.07,3.8.83,7.76,5.66,6.78.93-.19,1.48-.51,2.18-1.14,2.96-3.21,2.31-5.71,2.32-9.81.01-5.03,1.4-15.89-7.03-13.82-3.98.98-3.13,5.94-3.13,9.24,0,2.92,0,5.84,0,8.75Z"/>
  <path class="cls-1" d="M162.02,119.2c2.34,8.34-7.66,8.94-6.19-.11.38-2.33,4.99-1.77,5.92-.45l.28.56ZM155.77,135.88c0-2.62.26-5.96,3.83-5.5,3.77.49,2.86,5.84,2.84,8.76-.05,7.59.08,15.24.02,22.8-.01,1.39.08,3.86-1.43,4.51-1.12.48-3.65.54-4.45-.23-1.17-1.12-.73-11.93-.74-14.11-.02-5.41-.04-10.81-.05-16.22Z"/>
  <path class="cls-1" d="M173.93,140.35c-.95,8.4-.13,14.77-.19,22.89-.03,3.99-.98,3.96-4.57,3.37-1.73-.35-1.6-.39-1.93-2.32-.7-4.09-.16-12.44-.19-17.1-.02-3.52-.06-7.04-.1-10.56-.01-.96.14-5.3.76-5.9.57-.55,4.22-.41,4.8.18.77.78.68,5.36,1.57,3.89,2.28-3.76,4.26-5.47,9.04-4.82,2.04.28,3.32.99,4.8,2.36,3.13,3.57,2.43,8.56,2.43,12.98,0,3.26.49,18.17-.24,20.22-.36,1.02-.7,1.03-1.92,1.24-.86.15-3.28.13-3.87-.46-1.15-1.15-.39-15.15-.4-17.96,0-3.02.01-7.18-.65-10.08-1.7-3.61-7.11-3.92-8.91.59l-.37,1.11-.07.37Z"/>
  <path class="cls-1" d="M203.94,184.25c-6.48-.65-9.36-4.91-9.31-11.22,0-.67.26-3.14.69-3.6.73-.77,4.17-.75,4.89.04,1.09,1.21.06,10.48,7.32,8.76,4.39-1.04,3.49-6.51,3.48-10.09,0-2.15,0-4.3,0-6.45h-.3c-1.92,4.24-5.67,5.79-10.15,4.73-5.35-1.27-5.98-6.77-6.06-11.39v-15.45c0-2.88.71-5.21,2.12-7.01,2.65-2.98,7.91-3.73,11.23-1.33,3.29,2.38,3.02,6.22,3.7,2.35.06-.33.57-2.59.7-2.73.56-.58,3.25-.54,4.11-.36,1.02.21.71.05.99,1.49.58,2.97.17,11.64.17,15.25,0,8.58,0,17.16,0,25.75-.23,8.69-5.07,12.12-13.58,11.27ZM201.08,153.82c.07,3.8.83,7.76,5.66,6.78.93-.19,1.48-.51,2.18-1.14,2.96-3.21,2.31-5.71,2.32-9.81.01-5.03,1.4-15.89-7.03-13.82-3.98.98-3.13,5.94-3.13,9.24,0,2.92,0,5.84,0,8.75Z"/>
  <path class="cls-1" d="M221.69,141.25c0-3.84.92-6.69,2.76-8.56,1.84-1.87,4.71-2.8,8.6-2.8,11.68.3,11.66,7.62,11.47,17.12-.02,1.21-.08,1.73-.39,2.9-5.45,1.05-9.29-.32-13.62.37-2.09.33-2.21.39-2.53,2.52-1.39,9.34,7.71,11.45,9.79,4.31.94-3.23,1.87-3.55,5.57-3,.91.13,1.1.48,1.2,1.51.39,4.04-1.67,8.79-5.62,10.48-4.59,1.97-12.94,1.6-15.76-3.46-2.08-3.75-1.46-12.05-1.46-16.55v-4.85ZM228.06,143.65c.12,2.05-.11,1.55,2.51,1.82,2.61.27,4.59.2,7.13-.46.84-2.88.85-8.13-2.85-9.15-.99-.27-1.74-.21-2.75-.16-4.28.88-4.26,4.11-4.04,7.95Z"/>
  <path class="cls-1" d="M248.07,141.25c0-3.84.92-6.69,2.76-8.56,1.84-1.87,4.71-2.8,8.6-2.8,11.68.3,11.66,7.62,11.47,17.12-.02,1.21-.08,1.73-.39,2.9-5.45,1.05-9.29-.32-13.62.37-2.09.33-2.21.39-2.53,2.52-1.39,9.34,7.71,11.45,9.79,4.31.94-3.23,1.87-3.55,5.57-3,.91.13,1.1.48,1.2,1.51.39,4.04-1.67,8.79-5.62,10.48-4.59,1.97-12.94,1.6-15.76-3.46-2.08-3.75-1.46-12.05-1.46-16.55v-4.85ZM254.44,143.65c.12,2.05-.11,1.55,2.51,1.82,2.61.27,4.59.2,7.13-.46.84-2.88.85-8.13-2.85-9.15-.99-.27-1.74-.21-2.75-.16-4.28.88-4.26,4.11-4.04,7.95Z"/>
</svg>