<?xml version="1.0" encoding="UTF-8"?>
<svg id="Layer_1" xmlns="http://www.w3.org/2000/svg" viewBox="0 0 500 500">
  <defs>
    <style>
      .cls-1 {
        fill: #fcfbfa;
      }
    </style>
  </defs>
  <g>
    <path class="cls-1" d="M149.38,201.51c-.04,1.07-.61,3.77-.61,3.77l-.44,1.97c-.03.19-.22.38-.22.38-.36.36-1.26.68-1.26.68-6.13,1.77-20.93,1.62-20.93,1.62l-8.16-.03c-3.22-.09-7.08-.13-11.02-.15-7.12-.01-14.52.06-18.94.12-1.35-.07-2.64-.06-3.89.06-1,.07-1.96.22-2.9.41-2.29.49-4.28,1.31-5.97,2.48-1.68,1.16-3.05,3.18-4.09,6.03-1.04,2.86-1.7,6.53-1.93,11.04,0,.48-.04,1.16-.13,2.04-.32,3.06-.41,6.19-.23,9.41.16,3.22.52,6.16,1.09,8.86.55,2.7,1.9,5.05,4.03,7.06,2.13,2,4.93,3.34,8.38,3.97,1.77.25,3.26.42,4.47.55,1.2.12,2.41.07,3.61-.13,1.22-.19,2.16-.58,2.84-1.15.68-.57,1.25-1.38,1.68-2.47.45-1.09.71-2.48.78-4.16.09-2.58.07-4.47-.06-5.67-.12-1.2-.52-2.07-1.2-2.6-.68-.52-1.39-.77-2.12-.73-.71.04-2,0-3.86-.12-1.84-.12-3.65-.38-5.42-.78-1.2-4.9-.96-9.32.73-13.27,3.29-.64,6.08-1.09,8.32-1.33,1.52-.23,4.9-.26,10.14-.06,5.22.2,8.31.75,9.28,1.64,1.45,1.36,2.09,6.87,1.93,16.52v8.63c0,.91-.04,2.16-.12,3.73-.09,1.58-.2,2.76-.36,3.57-.16.8-.39,1.84-.67,3.13-.28,1.29-.67,2.28-1.15,2.96-.48.68-1.04,1.49-1.68,2.41-.65.93-1.42,1.65-2.29,2.18-.9.52-1.91,1.04-3.09,1.57-1.16.52-2.48.94-3.97,1.26-1.49.33-3.16.57-5,.73-9.01.81-16.39.71-22.13-.3-5.76-1-10.4-3.23-13.94-6.69-3.54-3.45-6.02-7.92-7.43-13.39-1.41-5.47-2.15-12.68-2.22-21.59.07-5.71.36-10.62.84-14.72.48-4.1,1.35-7.82,2.6-11.15,1.25-3.34,2.87-6.03,4.87-8.08,2.02-2.06,4.58-3.77,7.73-5.13,3.13-1.36,6.79-2.29,10.98-2.77,2.02-.25,4.22-.39,6.61-.48l.04-.07c12.25-1.52,63.11,2.76,63.11,2.76,1.65.09,2.33.96,2.33.96,1.16,1.16,1.06,3.45,1.02,4.52Z"/>
    <path class="cls-1" d="M155.5,197.57l1.28-.43c2.94-.85,5.22-.5,6.83,1.07,1.61,1.57,2.21,3.44,1.78,5.62-.43,2.18-1.64,3.58-3.63,4.2-1.47.38-2.84.46-4.09.25-1.26-.21-2.28-.73-3.06-1.57-.78-.83-1.33-1.75-1.64-2.78-.31-1.02-.25-2.11.18-3.27.43-1.16,1.21-2.19,2.35-3.1Z"/>
  </g>
  <path class="cls-1" d="M120.87,235.48c0-6.37,1.53-11.11,4.59-14.21,3.06-3.1,7.82-4.65,14.27-4.65,19.39.5,19.35,12.65,19.03,28.42-.04,2.01-.13,2.87-.64,4.81-9.05,1.74-15.42-.52-22.61.61-3.48.55-3.67.64-4.2,4.18-2.31,15.5,12.79,19,16.24,7.16,1.56-5.36,3.1-5.89,9.25-4.98,1.51.22,1.83.8,1.99,2.5.65,6.71-2.77,14.59-9.34,17.4-7.62,3.27-21.48,2.66-26.15-5.74-3.46-6.22-2.43-20-2.43-27.47v-8.04ZM131.44,239.46c.19,3.41-.18,2.57,4.17,3.02,4.33.45,7.61.34,11.83-.76,1.4-4.78,1.41-13.49-4.73-15.18-1.65-.45-2.89-.35-4.56-.27-7.11,1.46-7.07,6.83-6.71,13.19Z"/>
  <path class="cls-1" d="M199.37,259.79c.27-3.52-.72-15.11,2.23-16.55,1.98-.97,6.21-.71,7.03,2.06,1.27,4.31.41,17.87-.61,22.51-2.77,10.37-12.89,12.09-22.28,10.06-15.32-4.07-12.63-19.19-12.58-31.77.07-4.33.93-15.35-1.41-18.66-1.89-1.57-13.29-1.11-10.23-7.31,4.23-5.08,11.65.31,11.59-7.12-.04-4.66-1.11-13.86,6.45-12.44,7.98,1.5-.4,14.24,10.44,16.83,3.35.8,3.56,4.22,3.13,7.21-.62,4.3-7.05.96-8.46,4.23-2.14,4.96-1.44,28.96.49,34.44,3.7,7.09,12.72,7.72,14.21-3.49Z"/>
  <path class="cls-1" d="M229.52,306.85c-10.75-1.08-15.53-8.15-15.45-18.62,0-1.12.43-5.21,1.15-5.97,1.21-1.28,6.92-1.25,8.11.07,1.8,2,.1,17.4,12.15,14.54,7.29-1.73,5.78-10.8,5.77-16.75,0-3.57,0-7.14,0-10.7h-.5c-3.19,7.04-9.4,9.61-16.84,7.85-8.88-2.1-9.92-11.23-10.06-18.91v-25.64c0-4.78,1.17-8.65,3.52-11.63,4.4-4.95,13.12-6.19,18.63-2.2,5.47,3.96,5.02,10.33,6.15,3.89.1-.55.95-4.31,1.17-4.53.93-.96,5.39-.89,6.82-.59,1.69.35,1.17.09,1.64,2.47.96,4.93.29,19.31.29,25.3,0,14.24,0,28.49,0,42.73-.38,14.43-8.42,20.11-22.54,18.7ZM224.77,256.35c.11,6.31,1.37,12.88,9.4,11.25,1.54-.31,2.46-.85,3.61-1.89,4.92-5.32,3.83-9.48,3.85-16.29.02-8.34,2.32-26.37-11.67-22.94-6.6,1.62-5.2,9.86-5.19,15.33,0,4.84,0,9.69,0,14.53Z"/>
  <path class="cls-1" d="M269.95,198.89c3.88,13.84-12.71,14.83-10.27-.19.63-3.86,8.28-2.94,9.82-.74l.46.93ZM259.57,226.57c0-4.35.43-9.9,6.35-9.13,6.26.81,4.74,9.69,4.71,14.54-.08,12.6.13,25.29.03,37.83-.02,2.3.13,6.41-2.38,7.48-1.86.79-6.05.9-7.39-.38-1.95-1.87-1.22-19.8-1.23-23.42-.03-8.97-.07-17.95-.09-26.92Z"/>
  <path class="cls-1" d="M289.71,233.99c-1.58,13.94-.21,24.51-.31,38-.05,6.63-1.63,6.57-7.58,5.6-2.86-.58-2.65-.65-3.2-3.85-1.16-6.78-.27-20.65-.32-28.38-.04-5.84-.1-11.69-.17-17.53-.02-1.59.24-8.79,1.27-9.8.95-.92,7-.68,7.97.3,1.27,1.3,1.13,8.9,2.61,6.46,3.78-6.24,7.08-9.08,15.01-8,3.38.46,5.5,1.64,7.96,3.92,5.2,5.92,4.03,14.21,4.03,21.54,0,5.41.81,30.15-.39,33.56-.59,1.69-1.16,1.7-3.19,2.06-1.42.25-5.45.21-6.42-.77-1.91-1.91-.65-25.14-.66-29.81-.01-5.01.02-11.91-1.08-16.73-2.83-6-11.8-6.5-14.79.97l-.61,1.84-.12.62Z"/>
  <path class="cls-1" d="M339.52,306.85c-10.75-1.08-15.53-8.15-15.45-18.62,0-1.12.43-5.21,1.15-5.97,1.21-1.28,6.92-1.25,8.11.07,1.8,2,.1,17.4,12.15,14.54,7.29-1.73,5.78-10.8,5.77-16.75,0-3.57,0-7.14,0-10.7h-.5c-3.19,7.04-9.4,9.61-16.84,7.85-8.88-2.1-9.92-11.23-10.06-18.91v-25.64c0-4.78,1.17-8.65,3.52-11.63,4.4-4.95,13.12-6.19,18.63-2.2,5.47,3.96,5.02,10.33,6.15,3.89.1-.55.95-4.31,1.17-4.53.93-.96,5.39-.89,6.82-.59,1.69.35,1.17.09,1.64,2.47.96,4.93.29,19.31.29,25.3,0,14.24,0,28.49,0,42.73-.38,14.43-8.42,20.11-22.54,18.7ZM334.78,256.35c.11,6.31,1.37,12.88,9.4,11.25,1.54-.31,2.46-.85,3.61-1.89,4.92-5.32,3.83-9.48,3.85-16.29.02-8.34,2.32-26.37-11.67-22.94-6.6,1.62-5.2,9.86-5.19,15.33,0,4.84,0,9.69,0,14.53Z"/>
  <path class="cls-1" d="M368.98,235.48c0-6.37,1.53-11.11,4.59-14.21,3.06-3.1,7.82-4.65,14.27-4.65,19.39.5,19.35,12.65,19.03,28.42-.04,2.01-.13,2.87-.64,4.81-9.05,1.74-15.42-.52-22.61.61-3.48.55-3.67.64-4.2,4.18-2.31,15.5,12.79,19,16.24,7.16,1.56-5.36,3.1-5.89,9.25-4.98,1.51.22,1.83.8,1.99,2.5.65,6.71-2.77,14.59-9.34,17.4-7.62,3.27-21.48,2.66-26.15-5.74-3.46-6.22-2.43-20-2.43-27.47v-8.04ZM379.55,239.46c.19,3.41-.18,2.57,4.17,3.02,4.33.45,7.61.34,11.83-.76,1.4-4.78,1.41-13.49-4.73-15.18-1.65-.45-2.89-.35-4.56-.27-7.11,1.46-7.07,6.83-6.71,13.19Z"/>
  <path class="cls-1" d="M412.76,235.48c0-6.37,1.53-11.11,4.59-14.21,3.06-3.1,7.82-4.65,14.27-4.65,19.39.5,19.35,12.65,19.03,28.42-.04,2.01-.13,2.87-.64,4.81-9.05,1.74-15.42-.52-22.61.61-3.48.55-3.67.64-4.2,4.18-2.31,15.5,12.79,19,16.24,7.16,1.56-5.36,3.1-5.89,9.25-4.98,1.51.22,1.83.8,1.99,2.5.65,6.71-2.77,14.59-9.34,17.4-7.62,3.27-21.48,2.66-26.15-5.74-3.46-6.22-2.43-20-2.43-27.47v-8.04ZM423.34,239.46c.19,3.41-.18,2.57,4.17,3.02,4.33.45,7.61.34,11.83-.76,1.4-4.78,1.41-13.49-4.73-15.18-1.65-.45-2.89-.35-4.56-.27-7.11,1.46-7.07,6.83-6.71,13.19Z"/>
</svg>