<?xml version="1.0" encoding="UTF-8"?>
<svg id="Layer_1" xmlns="http://www.w3.org/2000/svg" viewBox="0 0 400 400">
  <defs>
    <style>
      .cls-1 {
        fill: #fcfbfa;
      }
    </style>
  </defs>
  <g>
    <path class="cls-1" d="M118.42,160.68c-.04.87-.49,3.06-.49,3.06l-.35,1.6c-.02.15-.18.31-.18.31-.29.29-1.02.55-1.02.55-4.97,1.43-16.97,1.32-16.97,1.32l-6.62-.02c-2.61-.07-5.74-.11-8.94-.12-5.77-.01-11.77.05-15.36.09-1.09-.06-2.14-.05-3.15.05-.81.06-1.59.18-2.35.33-1.86.4-3.47,1.06-4.84,2.01-1.36.94-2.47,2.58-3.32,4.89-.85,2.32-1.38,5.29-1.56,8.95,0,.39-.04.94-.11,1.66-.26,2.48-.33,5.02-.19,7.63.13,2.61.42,5,.88,7.18.45,2.19,1.54,4.09,3.27,5.73,1.73,1.62,4,2.7,6.8,3.22,1.43.2,2.65.34,3.62.45.98.09,1.95.06,2.93-.11.99-.15,1.75-.47,2.3-.93.55-.46,1.01-1.12,1.36-2,.36-.88.58-2.01.63-3.37.07-2.09.06-3.62-.05-4.6-.09-.98-.42-1.68-.98-2.1-.55-.42-1.13-.62-1.72-.59-.58.04-1.62,0-3.13-.09-1.49-.09-2.96-.31-4.4-.64-.98-3.97-.78-7.56.59-10.76,2.67-.52,4.93-.88,6.75-1.08,1.23-.19,3.97-.21,8.22-.05,4.23.16,6.74.61,7.53,1.33,1.18,1.11,1.69,5.57,1.56,13.39v7c0,.74-.04,1.75-.09,3.02-.07,1.28-.16,2.23-.29,2.89-.13.65-.32,1.49-.54,2.54-.22,1.05-.54,1.85-.93,2.4-.39.55-.85,1.21-1.36,1.95-.53.75-1.15,1.34-1.86,1.76-.73.42-1.55.85-2.5,1.27-.94.42-2.01.76-3.22,1.02-1.21.27-2.56.46-4.06.59-7.3.66-13.29.58-17.94-.25-4.67-.81-8.43-2.62-11.3-5.42-2.87-2.8-4.88-6.42-6.02-10.85-1.14-4.43-1.74-10.28-1.8-17.51.06-4.63.29-8.61.68-11.93.39-3.33,1.09-6.34,2.1-9.04,1.01-2.7,2.33-4.89,3.95-6.55,1.63-1.67,3.72-3.06,6.27-4.16,2.54-1.11,5.5-1.86,8.9-2.25,1.63-.2,3.42-.32,5.36-.39l.04-.06c9.94-1.23,51.17,2.23,51.17,2.23,1.34.07,1.89.78,1.89.78.94.94.86,2.8.82,3.67Z"/>
    <path class="cls-1" d="M123.38,157.49l1.04-.35c2.38-.69,4.23-.4,5.54.87,1.31,1.27,1.79,2.79,1.44,4.56-.35,1.77-1.33,2.91-2.94,3.4-1.19.31-2.3.37-3.32.2-1.02-.17-1.85-.6-2.48-1.27-.63-.67-1.08-1.42-1.33-2.25-.25-.83-.2-1.71.14-2.65.35-.94.98-1.78,1.9-2.51Z"/>
  </g>
  <path class="cls-1" d="M95.3,188.22c0-5.16,1.24-9,3.72-11.52,2.48-2.51,6.34-3.77,11.57-3.77,15.72.41,15.69,10.26,15.43,23.04-.03,1.63-.1,2.33-.52,3.9-7.34,1.41-12.5-.42-18.33.49-2.82.44-2.98.52-3.4,3.39-1.88,12.57,10.37,15.41,13.17,5.81,1.26-4.34,2.51-4.77,7.5-4.04,1.22.18,1.48.65,1.61,2.03.53,5.44-2.25,11.83-7.57,14.11-6.17,2.65-17.42,2.16-21.21-4.65-2.8-5.04-1.97-16.21-1.97-22.27v-6.52ZM103.87,191.45c.16,2.76-.15,2.08,3.38,2.45,3.51.37,6.17.28,9.59-.62,1.14-3.87,1.14-10.94-3.83-12.31-1.34-.37-2.35-.28-3.7-.22-5.77,1.19-5.73,5.54-5.44,10.7Z"/>
  <path class="cls-1" d="M158.95,207.94c.22-2.85-.58-12.25,1.81-13.42,1.61-.78,5.04-.57,5.7,1.67,1.03,3.5.33,14.49-.49,18.25-2.24,8.4-10.45,9.8-18.06,8.15-12.42-3.3-10.24-15.56-10.2-25.76.06-3.51.75-12.45-1.14-15.13-1.53-1.27-10.77-.9-8.3-5.93,3.43-4.11,9.45.25,9.39-5.77-.03-3.78-.9-11.24,5.23-10.09,6.47,1.22-.32,11.55,8.46,13.65,2.72.65,2.88,3.42,2.54,5.85-.5,3.49-5.72.78-6.86,3.43-1.73,4.02-1.17,23.48.4,27.92,3,5.75,10.32,6.26,11.52-2.83Z"/>
  <path class="cls-1" d="M183.39,246.09c-8.71-.87-12.59-6.61-12.53-15.1,0-.91.35-4.22.93-4.84.98-1.04,5.61-1.01,6.57.06,1.46,1.62.08,14.1,9.85,11.79,5.91-1.4,4.69-8.75,4.68-13.58,0-2.89,0-5.79,0-8.68h-.41c-2.58,5.71-7.62,7.79-13.65,6.36-7.2-1.7-8.04-9.1-8.16-15.33v-20.79c0-3.87.95-7.02,2.85-9.43,3.57-4.02,10.64-5.02,15.11-1.79,4.43,3.21,4.07,8.37,4.98,3.16.08-.45.77-3.49.95-3.68.75-.78,4.37-.72,5.53-.48,1.37.28.95.07,1.33,2,.78,3.99.23,15.66.23,20.52,0,11.55,0,23.1,0,34.64-.31,11.7-6.82,16.31-18.27,15.16ZM179.55,205.14c.09,5.11,1.11,10.44,7.62,9.12,1.25-.25,2-.69,2.93-1.53,3.99-4.31,3.11-7.69,3.12-13.21.02-6.76,1.88-21.38-9.46-18.6-5.35,1.31-4.22,8-4.21,12.43,0,3.93,0,7.85,0,11.78Z"/>
  <path class="cls-1" d="M216.18,158.56c3.15,11.22-10.3,12.02-8.33-.15.51-3.13,6.72-2.38,7.96-.6l.37.75ZM207.76,181.01c0-3.53.35-8.03,5.15-7.4,5.07.66,3.84,7.86,3.82,11.79-.07,10.21.1,20.51.02,30.68-.01,1.87.1,5.2-1.93,6.06-1.51.64-4.91.73-5.99-.31-1.58-1.51-.99-16.05-1-18.99-.03-7.28-.06-14.55-.07-21.82Z"/>
  <path class="cls-1" d="M232.2,187.02c-1.28,11.3-.17,19.87-.25,30.81-.04,5.38-1.33,5.33-6.15,4.54-2.32-.47-2.15-.53-2.59-3.12-.94-5.5-.22-16.75-.26-23.01-.03-4.74-.08-9.47-.13-14.21-.02-1.29.19-7.13,1.03-7.94.77-.74,5.68-.55,6.46.25,1.03,1.05.92,7.22,2.12,5.24,3.06-5.06,5.74-7.36,12.17-6.49,2.74.37,4.46,1.33,6.46,3.18,4.22,4.8,3.27,11.52,3.27,17.46,0,4.38.66,24.45-.32,27.21-.48,1.37-.94,1.38-2.58,1.67-1.15.21-4.42.17-5.21-.62-1.55-1.55-.53-20.38-.54-24.17,0-4.06.02-9.66-.87-13.57-2.29-4.86-9.57-5.27-11.99.79l-.49,1.49-.1.5Z"/>
  <path class="cls-1" d="M272.58,246.09c-8.71-.87-12.59-6.61-12.53-15.1,0-.91.35-4.22.93-4.84.98-1.04,5.61-1.01,6.57.06,1.46,1.62.08,14.1,9.85,11.79,5.91-1.4,4.69-8.75,4.68-13.58,0-2.89,0-5.79,0-8.68h-.41c-2.58,5.71-7.62,7.79-13.65,6.36-7.2-1.7-8.04-9.1-8.16-15.33v-20.79c0-3.87.95-7.02,2.85-9.43,3.57-4.02,10.64-5.02,15.11-1.79,4.43,3.21,4.07,8.37,4.98,3.16.08-.45.77-3.49.95-3.68.75-.78,4.37-.72,5.53-.48,1.37.28.95.07,1.33,2,.78,3.99.23,15.66.23,20.52,0,11.55,0,23.1,0,34.64-.31,11.7-6.82,16.31-18.27,15.16ZM268.74,205.14c.09,5.11,1.11,10.44,7.62,9.12,1.25-.25,2-.69,2.93-1.53,3.99-4.31,3.11-7.69,3.12-13.21.02-6.76,1.88-21.38-9.46-18.6-5.35,1.31-4.22,8-4.21,12.43,0,3.93,0,7.85,0,11.78Z"/>
  <path class="cls-1" d="M296.46,188.22c0-5.16,1.24-9,3.72-11.52,2.48-2.51,6.34-3.77,11.57-3.77,15.72.41,15.69,10.26,15.43,23.04-.03,1.63-.1,2.33-.52,3.9-7.34,1.41-12.5-.42-18.33.49-2.82.44-2.98.52-3.4,3.39-1.88,12.57,10.37,15.41,13.17,5.81,1.26-4.34,2.51-4.77,7.5-4.04,1.22.18,1.48.65,1.61,2.03.53,5.44-2.25,11.83-7.57,14.11-6.17,2.65-17.42,2.16-21.21-4.65-2.8-5.04-1.97-16.21-1.97-22.27v-6.52ZM305.04,191.45c.16,2.76-.15,2.08,3.38,2.45,3.51.37,6.17.28,9.59-.62,1.14-3.87,1.14-10.94-3.83-12.31-1.34-.37-2.35-.28-3.7-.22-5.77,1.19-5.73,5.54-5.44,10.7Z"/>
  <path class="cls-1" d="M331.96,188.22c0-5.16,1.24-9,3.72-11.52,2.48-2.51,6.34-3.77,11.57-3.77,15.72.41,15.69,10.26,15.43,23.04-.03,1.63-.1,2.33-.52,3.9-7.34,1.41-12.5-.42-18.33.49-2.82.44-2.98.52-3.4,3.39-1.88,12.57,10.37,15.41,13.17,5.81,1.26-4.34,2.51-4.77,7.5-4.04,1.22.18,1.48.65,1.61,2.03.53,5.44-2.25,11.83-7.57,14.11-6.17,2.65-17.42,2.16-21.21-4.65-2.81-5.04-1.97-16.21-1.97-22.27v-6.52ZM340.54,191.45c.16,2.76-.15,2.08,3.38,2.45,3.51.37,6.17.28,9.59-.62,1.14-3.87,1.14-10.94-3.83-12.31-1.34-.37-2.35-.28-3.7-.22-5.77,1.19-5.73,5.54-5.44,10.7Z"/>
</svg>