<?xml version="1.0" encoding="UTF-8"?>
<svg id="Layer_1" xmlns="http://www.w3.org/2000/svg" viewBox="0 0 33 33">
  <defs>
    <style>
      .cls-1 {
        fill: #fcfbfa;
      }
    </style>
  </defs>
  <g>
    <path class="cls-1" d="M9.91,13.32c0,.07-.04.25-.04.25l-.03.13s-.01.02-.01.02c-.02.02-.08.04-.08.04-.4.12-1.37.11-1.37.11h-.54c-.21,0-.46-.01-.72-.01-.47,0-.95,0-1.24,0-.09,0-.17,0-.25,0-.07,0-.13.01-.19.03-.15.03-.28.09-.39.16-.11.08-.2.21-.27.4-.07.19-.11.43-.13.72,0,.03,0,.08,0,.13-.02.2-.03.41-.02.62.01.21.03.4.07.58.04.18.12.33.26.46.14.13.32.22.55.26.12.02.21.03.29.04.08,0,.16,0,.24,0,.08-.01.14-.04.19-.08.04-.04.08-.09.11-.16.03-.07.05-.16.05-.27,0-.17,0-.29,0-.37,0-.08-.03-.14-.08-.17-.04-.03-.09-.05-.14-.05-.05,0-.13,0-.25,0-.12,0-.24-.02-.36-.05-.08-.32-.06-.61.05-.87.22-.04.4-.07.55-.09.1-.02.32-.02.66,0,.34.01.54.05.61.11.1.09.14.45.13,1.08v.57c0,.06,0,.14,0,.24,0,.1-.01.18-.02.23-.01.05-.03.12-.04.21-.02.08-.04.15-.08.19-.03.04-.07.1-.11.16-.04.06-.09.11-.15.14-.06.03-.13.07-.2.1-.08.03-.16.06-.26.08-.1.02-.21.04-.33.05-.59.05-1.07.05-1.45-.02-.38-.07-.68-.21-.91-.44-.23-.23-.39-.52-.49-.88-.09-.36-.14-.83-.15-1.42,0-.37.02-.7.06-.96.03-.27.09-.51.17-.73s.19-.4.32-.53c.13-.13.3-.25.51-.34.21-.09.44-.15.72-.18.13-.02.28-.03.43-.03h0c.8-.1,4.14.18,4.14.18.11,0,.15.06.15.06.08.08.07.23.07.3Z"/>
    <path class="cls-1" d="M10.31,13.06l.08-.03c.19-.06.34-.03.45.07.11.1.14.23.12.37-.03.14-.11.23-.24.28-.1.02-.19.03-.27.02-.08-.01-.15-.05-.2-.1s-.09-.12-.11-.18c-.02-.07-.02-.14.01-.21.03-.08.08-.14.15-.2Z"/>
  </g>
  <path class="cls-1" d="M8.04,15.55c0-.42.1-.73.3-.93.2-.2.51-.3.94-.3,1.27.03,1.27.83,1.25,1.86,0,.13,0,.19-.04.32-.59.11-1.01-.03-1.48.04-.23.04-.24.04-.28.27-.15,1.02.84,1.25,1.06.47.1-.35.2-.39.61-.33.1.01.12.05.13.16.04.44-.18.96-.61,1.14-.5.21-1.41.17-1.71-.38-.23-.41-.16-1.31-.16-1.8v-.53ZM8.73,15.81c.01.22-.01.17.27.2.28.03.5.02.78-.05.09-.31.09-.88-.31-1-.11-.03-.19-.02-.3-.02-.47.1-.46.45-.44.86Z"/>
  <path class="cls-1" d="M13.18,17.14c.02-.23-.05-.99.15-1.08.13-.06.41-.05.46.13.08.28.03,1.17-.04,1.48-.18.68-.84.79-1.46.66-1-.27-.83-1.26-.82-2.08,0-.28.06-1.01-.09-1.22-.12-.1-.87-.07-.67-.48.28-.33.76.02.76-.47,0-.31-.07-.91.42-.82.52.1-.03.93.68,1.1.22.05.23.28.21.47-.04.28-.46.06-.55.28-.14.32-.09,1.9.03,2.26.24.46.83.51.93-.23Z"/>
  <path class="cls-1" d="M15.16,20.23c-.7-.07-1.02-.53-1.01-1.22,0-.07.03-.34.08-.39.08-.08.45-.08.53,0,.12.13,0,1.14.8.95.48-.11.38-.71.38-1.1,0-.23,0-.47,0-.7h-.03c-.21.46-.62.63-1.1.51-.58-.14-.65-.74-.66-1.24v-1.68c0-.31.08-.57.23-.76.29-.32.86-.41,1.22-.14.36.26.33.68.4.26,0-.04.06-.28.08-.3.06-.06.35-.06.45-.04.11.02.08,0,.11.16.06.32.02,1.27.02,1.66,0,.93,0,1.87,0,2.8-.03.95-.55,1.32-1.48,1.23ZM14.85,16.92c0,.41.09.84.62.74.1-.02.16-.06.24-.12.32-.35.25-.62.25-1.07,0-.55.15-1.73-.76-1.5-.43.11-.34.65-.34,1,0,.32,0,.63,0,.95Z"/>
  <path class="cls-1" d="M17.81,13.15c.25.91-.83.97-.67-.01.04-.25.54-.19.64-.05l.03.06ZM17.13,14.96c0-.29.03-.65.42-.6.41.05.31.64.31.95,0,.83,0,1.66,0,2.48,0,.15,0,.42-.16.49-.12.05-.4.06-.48-.03-.13-.12-.08-1.3-.08-1.53,0-.59,0-1.18,0-1.76Z"/>
  <path class="cls-1" d="M19.1,15.45c-.1.91-.01,1.61-.02,2.49,0,.43-.11.43-.5.37-.19-.04-.17-.04-.21-.25-.08-.44-.02-1.35-.02-1.86,0-.38,0-.77-.01-1.15,0-.1.02-.58.08-.64.06-.06.46-.04.52.02.08.08.07.58.17.42.25-.41.46-.6.98-.52.22.03.36.11.52.26.34.39.26.93.26,1.41,0,.35.05,1.98-.03,2.2-.04.11-.08.11-.21.14-.09.02-.36.01-.42-.05-.12-.13-.04-1.65-.04-1.95,0-.33,0-.78-.07-1.1-.19-.39-.77-.43-.97.06l-.04.12v.04Z"/>
  <path class="cls-1" d="M22.37,20.23c-.7-.07-1.02-.53-1.01-1.22,0-.07.03-.34.08-.39.08-.08.45-.08.53,0,.12.13,0,1.14.8.95.48-.11.38-.71.38-1.1,0-.23,0-.47,0-.7h-.03c-.21.46-.62.63-1.1.51-.58-.14-.65-.74-.66-1.24v-1.68c0-.31.08-.57.23-.76.29-.32.86-.41,1.22-.14.36.26.33.68.4.26,0-.04.06-.28.08-.3.06-.06.35-.06.45-.04.11.02.08,0,.11.16.06.32.02,1.27.02,1.66,0,.93,0,1.87,0,2.8-.03.95-.55,1.32-1.48,1.23ZM22.06,16.92c0,.41.09.84.62.74.1-.02.16-.06.24-.12.32-.35.25-.62.25-1.07,0-.55.15-1.73-.76-1.5-.43.11-.34.65-.34,1,0,.32,0,.63,0,.95Z"/>
  <path class="cls-1" d="M24.3,15.55c0-.42.1-.73.3-.93.2-.2.51-.3.94-.3,1.27.03,1.27.83,1.25,1.86,0,.13,0,.19-.04.32-.59.11-1.01-.03-1.48.04-.23.04-.24.04-.28.27-.15,1.02.84,1.25,1.06.47.1-.35.2-.39.61-.33.1.01.12.05.13.16.04.44-.18.96-.61,1.14-.5.21-1.41.17-1.71-.38-.23-.41-.16-1.31-.16-1.8v-.53ZM24.99,15.81c.01.22-.01.17.27.2.28.03.5.02.78-.05.09-.31.09-.88-.31-1-.11-.03-.19-.02-.3-.02-.47.1-.46.45-.44.86Z"/>
  <path class="cls-1" d="M27.17,15.55c0-.42.1-.73.3-.93.2-.2.51-.3.94-.3,1.27.03,1.27.83,1.25,1.86,0,.13,0,.19-.04.32-.59.11-1.01-.03-1.48.04-.23.04-.24.04-.28.27-.15,1.02.84,1.25,1.06.47.1-.35.2-.39.61-.33.1.01.12.05.13.16.04.44-.18.96-.61,1.14-.5.21-1.41.17-1.71-.38-.23-.41-.16-1.31-.16-1.8v-.53ZM27.86,15.81c.01.22-.01.17.27.2.28.03.5.02.78-.05.09-.31.09-.88-.31-1-.11-.03-.19-.02-.3-.02-.47.1-.46.45-.44.86Z"/>
</svg>