<?xml version="1.0" encoding="UTF-8"?>
<svg id="Layer_1" xmlns="http://www.w3.org/2000/svg" viewBox="0 0 192 192">
  <defs>
    <style>
      .cls-1 {
        fill: #fcfbfa;
      }
    </style>
  </defs>
  <g>
    <path class="cls-1" d="M56.79,77.1c-.02.42-.24,1.47-.24,1.47l-.17.77c-.01.07-.08.15-.08.15-.14.14-.49.27-.49.27-2.39.69-8.16.63-8.16.63h-3.18c-1.25-.05-2.76-.06-4.3-.07-2.77,0-5.66.02-7.38.05-.53-.03-1.03-.02-1.51.02-.39.03-.76.08-1.13.16-.89.19-1.67.51-2.33.97-.66.45-1.19,1.24-1.59,2.35-.41,1.11-.66,2.54-.75,4.3,0,.19-.02.45-.05.8-.12,1.19-.16,2.41-.09,3.67.06,1.25.2,2.4.42,3.45.21,1.05.74,1.97,1.57,2.75.83.78,1.92,1.3,3.27,1.55.69.1,1.27.16,1.74.21.47.05.94.03,1.41-.05.47-.07.84-.23,1.11-.45.27-.22.49-.54.66-.96.18-.42.28-.97.31-1.62.03-1.01.03-1.74-.02-2.21-.05-.47-.2-.81-.47-1.01-.27-.2-.54-.3-.83-.28-.28.02-.78,0-1.5-.05-.72-.05-1.42-.15-2.11-.31-.47-1.91-.37-3.63.28-5.17,1.28-.25,2.37-.42,3.24-.52.59-.09,1.91-.1,3.95-.02,2.03.08,3.24.29,3.62.64.57.53.81,2.68.75,6.44v3.36c0,.36-.02.84-.05,1.45-.03.62-.08,1.07-.14,1.39-.06.31-.15.72-.26,1.22-.11.5-.26.89-.45,1.15-.19.27-.41.58-.66.94-.25.36-.55.64-.89.85-.35.2-.75.41-1.2.61-.45.2-.97.37-1.55.49-.58.13-1.23.22-1.95.28-3.51.32-6.39.28-8.62-.12-2.24-.39-4.05-1.26-5.43-2.61-1.38-1.35-2.35-3.09-2.89-5.22-.55-2.13-.84-4.94-.86-8.42.03-2.23.14-4.14.33-5.74.19-1.6.53-3.05,1.01-4.35.49-1.3,1.12-2.35,1.9-3.15.79-.8,1.79-1.47,3.01-2,1.22-.53,2.64-.89,4.28-1.08.79-.1,1.64-.15,2.58-.19l.02-.03c4.78-.59,24.6,1.07,24.6,1.07.64.03.91.37.91.37.45.45.41,1.35.4,1.76Z"/>
    <path class="cls-1" d="M59.17,75.57l.5-.17c1.15-.33,2.03-.19,2.66.42.63.61.86,1.34.69,2.19-.17.85-.64,1.4-1.41,1.64-.57.15-1.11.18-1.59.1-.49-.08-.89-.29-1.19-.61s-.52-.68-.64-1.08c-.12-.4-.1-.82.07-1.28.17-.45.47-.86.92-1.21Z"/>
  </g>
  <path class="cls-1" d="M45.68,90.34c0-2.48.6-4.33,1.79-5.54,1.19-1.21,3.05-1.81,5.56-1.81,7.56.2,7.54,4.93,7.42,11.08-.02.78-.05,1.12-.25,1.87-3.53.68-6.01-.2-8.81.24-1.35.21-1.43.25-1.64,1.63-.9,6.04,4.99,7.41,6.33,2.79.61-2.09,1.21-2.29,3.6-1.94.59.09.71.31.78.98.25,2.61-1.08,5.68-3.64,6.78-2.97,1.27-8.37,1.04-10.19-2.24-1.35-2.42-.95-7.79-.95-10.71v-3.13ZM49.8,91.89c.08,1.33-.07,1,1.62,1.18,1.69.18,2.97.13,4.61-.3.55-1.86.55-5.26-1.84-5.92-.64-.18-1.13-.14-1.78-.11-2.77.57-2.75,2.66-2.61,5.14Z"/>
  <path class="cls-1" d="M76.27,99.82c.1-1.37-.28-5.89.87-6.45.77-.38,2.42-.28,2.74.8.5,1.68.16,6.96-.24,8.77-1.08,4.04-5.02,4.71-8.68,3.92-5.97-1.59-4.92-7.48-4.9-12.38.03-1.69.36-5.98-.55-7.27-.74-.61-5.18-.43-3.99-2.85,1.65-1.98,4.54.12,4.52-2.77-.02-1.82-.43-5.4,2.51-4.85,3.11.58-.16,5.55,4.07,6.56,1.31.31,1.39,1.64,1.22,2.81-.24,1.68-2.75.37-3.3,1.65-.83,1.93-.56,11.29.19,13.42,1.44,2.76,4.96,3.01,5.54-1.36Z"/>
  <path class="cls-1" d="M88.02,118.15c-4.19-.42-6.05-3.18-6.02-7.26,0-.44.17-2.03.45-2.33.47-.5,2.7-.49,3.16.03.7.78.04,6.78,4.74,5.67,2.84-.67,2.25-4.21,2.25-6.53,0-1.39,0-2.78,0-4.17h-.2c-1.24,2.74-3.66,3.74-6.56,3.06-3.46-.82-3.86-4.38-3.92-7.37v-9.99c0-1.86.46-3.37,1.37-4.53,1.71-1.93,5.11-2.41,7.26-.86,2.13,1.54,1.96,4.02,2.39,1.52.04-.21.37-1.68.45-1.77.36-.38,2.1-.35,2.66-.23.66.14.46.03.64.96.38,1.92.11,7.53.11,9.86,0,5.55,0,11.1,0,16.65-.15,5.62-3.28,7.84-8.78,7.29ZM86.17,98.47c.04,2.46.53,5.02,3.66,4.39.6-.12.96-.33,1.41-.74,1.92-2.07,1.49-3.69,1.5-6.35,0-3.25.9-10.28-4.55-8.94-2.57.63-2.03,3.84-2.02,5.98,0,1.89,0,3.77,0,5.66Z"/>
  <path class="cls-1" d="M103.78,76.08c1.51,5.39-4.95,5.78-4-.07.24-1.5,3.23-1.15,3.83-.29l.18.36ZM99.73,86.87c0-1.7.17-3.86,2.48-3.56,2.44.32,1.85,3.78,1.83,5.66-.03,4.91.05,9.86.01,14.74,0,.9.05,2.5-.93,2.91-.72.31-2.36.35-2.88-.15-.76-.73-.47-7.71-.48-9.13-.01-3.5-.03-6.99-.04-10.49Z"/>
  <path class="cls-1" d="M111.47,89.76c-.61,5.43-.08,9.55-.12,14.81-.02,2.58-.64,2.56-2.96,2.18-1.12-.23-1.03-.25-1.25-1.5-.45-2.64-.11-8.05-.13-11.06-.01-2.28-.04-4.55-.06-6.83,0-.62.09-3.43.49-3.82.37-.36,2.73-.27,3.11.12.5.5.44,3.47,1.02,2.52,1.47-2.43,2.76-3.54,5.85-3.12,1.32.18,2.14.64,3.1,1.53,2.03,2.31,1.57,5.54,1.57,8.39,0,2.11.32,11.75-.15,13.08-.23.66-.45.66-1.24.8-.55.1-2.12.08-2.5-.3-.74-.74-.25-9.8-.26-11.62,0-1.95,0-4.64-.42-6.52-1.1-2.34-4.6-2.53-5.76.38l-.24.72-.05.24Z"/>
  <path class="cls-1" d="M130.89,118.15c-4.19-.42-6.05-3.18-6.02-7.26,0-.44.17-2.03.45-2.33.47-.5,2.7-.49,3.16.03.7.78.04,6.78,4.74,5.67,2.84-.67,2.25-4.21,2.25-6.53,0-1.39,0-2.78,0-4.17h-.2c-1.24,2.74-3.66,3.74-6.56,3.06-3.46-.82-3.86-4.38-3.92-7.37v-9.99c0-1.86.46-3.37,1.37-4.53,1.71-1.93,5.11-2.41,7.26-.86,2.13,1.54,1.96,4.02,2.39,1.52.04-.21.37-1.68.45-1.77.36-.38,2.1-.35,2.66-.23.66.14.46.03.64.96.38,1.92.11,7.53.11,9.86,0,5.55,0,11.1,0,16.65-.15,5.62-3.28,7.84-8.78,7.29ZM129.04,98.47c.04,2.46.53,5.02,3.66,4.39.6-.12.96-.33,1.41-.74,1.92-2.07,1.49-3.69,1.5-6.35,0-3.25.9-10.28-4.55-8.94-2.57.63-2.03,3.84-2.02,5.98,0,1.89,0,3.77,0,5.66Z"/>
  <path class="cls-1" d="M142.37,90.34c0-2.48.6-4.33,1.79-5.54,1.19-1.21,3.05-1.81,5.56-1.81,7.56.2,7.54,4.93,7.42,11.08-.02.78-.05,1.12-.25,1.87-3.53.68-6.01-.2-8.81.24-1.35.21-1.43.25-1.64,1.63-.9,6.04,4.99,7.41,6.33,2.79.61-2.09,1.21-2.29,3.6-1.94.59.09.71.31.78.98.25,2.61-1.08,5.68-3.64,6.78-2.97,1.27-8.37,1.04-10.19-2.24-1.35-2.42-.95-7.79-.95-10.71v-3.13ZM146.49,91.89c.08,1.33-.07,1,1.62,1.18,1.69.18,2.97.13,4.61-.3.55-1.86.55-5.26-1.84-5.92-.64-.18-1.13-.14-1.78-.11-2.77.57-2.75,2.66-2.61,5.14Z"/>
  <path class="cls-1" d="M159.43,90.34c0-2.48.6-4.33,1.79-5.54,1.19-1.21,3.05-1.81,5.56-1.81,7.56.2,7.54,4.93,7.42,11.08-.02.78-.05,1.12-.25,1.87-3.53.68-6.01-.2-8.81.24-1.35.21-1.43.25-1.64,1.63-.9,6.04,4.99,7.41,6.33,2.79.61-2.09,1.21-2.29,3.6-1.94.59.09.71.31.78.98.25,2.61-1.08,5.68-3.64,6.78-2.97,1.27-8.37,1.04-10.19-2.24-1.35-2.42-.95-7.79-.95-10.71v-3.13ZM163.55,91.89c.08,1.33-.07,1,1.62,1.18,1.69.18,2.97.13,4.61-.3.55-1.86.55-5.26-1.84-5.92-.64-.18-1.13-.14-1.78-.11-2.77.57-2.75,2.66-2.61,5.14Z"/>
</svg>