<?xml version="1.0" encoding="UTF-8"?>
<svg id="Layer_1" xmlns="http://www.w3.org/2000/svg" viewBox="0 0 64 64">
  <defs>
    <style>
      .cls-1 {
        fill: #fcfbfa;
      }
    </style>
  </defs>
  <g>
    <path class="cls-1" d="M19.21,25.84c0,.14-.08.48-.08.48l-.06.25s-.03.05-.03.05c-.05.05-.16.09-.16.09-.78.22-2.66.21-2.66.21h-1.04c-.41-.01-.9-.02-1.4-.02-.91,0-1.85,0-2.41.01-.17,0-.34,0-.49,0-.13,0-.25.03-.37.05-.29.06-.54.17-.76.32-.21.15-.39.4-.52.77-.13.36-.22.83-.25,1.4,0,.06,0,.15-.02.26-.04.39-.05.79-.03,1.2.02.41.07.78.14,1.13.07.34.24.64.51.9.27.25.63.42,1.07.51.22.03.41.05.57.07.15.01.31,0,.46-.02.15-.02.27-.07.36-.15.09-.07.16-.18.21-.31.06-.14.09-.32.1-.53.01-.33,0-.57,0-.72-.01-.15-.07-.26-.15-.33-.09-.07-.18-.1-.27-.09-.09,0-.25,0-.49-.01-.23-.01-.46-.05-.69-.1-.15-.62-.12-1.19.09-1.69.42-.08.77-.14,1.06-.17.19-.03.62-.03,1.29,0,.66.03,1.06.1,1.18.21.18.17.27.87.25,2.1v1.1c0,.12,0,.27-.01.47-.01.2-.03.35-.05.45-.02.1-.05.23-.08.4-.04.16-.08.29-.15.38-.06.09-.13.19-.21.31-.08.12-.18.21-.29.28-.11.07-.24.13-.39.2-.15.07-.32.12-.51.16-.19.04-.4.07-.64.09-1.14.1-2.08.09-2.81-.04-.73-.13-1.32-.41-1.77-.85-.45-.44-.77-1.01-.94-1.7-.18-.7-.27-1.61-.28-2.74,0-.73.05-1.35.11-1.87.06-.52.17-.99.33-1.42s.37-.77.62-1.03c.26-.26.58-.48.98-.65.4-.17.86-.29,1.4-.35.26-.03.54-.05.84-.06h0c1.56-.2,8.02.34,8.02.34.21.01.3.12.3.12.15.15.13.44.13.58Z"/>
    <path class="cls-1" d="M19.99,25.34l.16-.05c.37-.11.66-.06.87.14.2.2.28.44.23.71-.05.28-.21.46-.46.53-.19.05-.36.06-.52.03-.16-.03-.29-.09-.39-.2s-.17-.22-.21-.35c-.04-.13-.03-.27.02-.42.05-.15.15-.28.3-.39Z"/>
  </g>
  <path class="cls-1" d="M15.58,30.15c0-.81.19-1.41.58-1.81.39-.39.99-.59,1.81-.59,2.46.06,2.46,1.61,2.42,3.61,0,.26-.02.37-.08.61-1.15.22-1.96-.07-2.87.08-.44.07-.47.08-.53.53-.29,1.97,1.63,2.42,2.06.91.2-.68.39-.75,1.18-.63.19.03.23.1.25.32.08.85-.35,1.85-1.19,2.21-.97.42-2.73.34-3.32-.73-.44-.79-.31-2.54-.31-3.49v-1.02ZM16.93,30.66c.02.43-.02.33.53.38.55.06.97.04,1.5-.1.18-.61.18-1.72-.6-1.93-.21-.06-.37-.04-.58-.03-.9.19-.9.87-.85,1.68Z"/>
  <path class="cls-1" d="M25.56,33.25c.03-.45-.09-1.92.28-2.1.25-.12.79-.09.89.26.16.55.05,2.27-.08,2.86-.35,1.32-1.64,1.54-2.83,1.28-1.95-.52-1.61-2.44-1.6-4.04,0-.55.12-1.95-.18-2.37-.24-.2-1.69-.14-1.3-.93.54-.65,1.48.04,1.47-.91,0-.59-.14-1.76.82-1.58,1.01.19-.05,1.81,1.33,2.14.43.1.45.54.4.92-.08.55-.9.12-1.08.54-.27.63-.18,3.68.06,4.38.47.9,1.62.98,1.81-.44Z"/>
  <path class="cls-1" d="M29.4,39.23c-1.37-.14-1.97-1.04-1.96-2.37,0-.14.06-.66.15-.76.15-.16.88-.16,1.03,0,.23.25.01,2.21,1.54,1.85.93-.22.74-1.37.73-2.13,0-.45,0-.91,0-1.36h-.06c-.41.89-1.2,1.22-2.14,1-1.13-.27-1.26-1.43-1.28-2.4v-3.26c0-.61.15-1.1.45-1.48.56-.63,1.67-.79,2.37-.28.7.5.64,1.31.78.49.01-.07.12-.55.15-.58.12-.12.69-.11.87-.08.21.04.15.01.21.31.12.63.04,2.45.04,3.22,0,1.81,0,3.62,0,5.43-.05,1.83-1.07,2.56-2.87,2.38ZM28.79,32.81c.01.8.17,1.64,1.19,1.43.2-.04.31-.11.46-.24.62-.68.49-1.21.49-2.07,0-1.06.29-3.35-1.48-2.92-.84.21-.66,1.25-.66,1.95,0,.62,0,1.23,0,1.85Z"/>
  <path class="cls-1" d="M34.54,25.5c.49,1.76-1.62,1.89-1.31-.02.08-.49,1.05-.37,1.25-.09l.06.12ZM33.22,29.02c0-.55.06-1.26.81-1.16.8.1.6,1.23.6,1.85-.01,1.6.02,3.22,0,4.81,0,.29.02.81-.3.95-.24.1-.77.11-.94-.05-.25-.24-.15-2.52-.16-2.98,0-1.14,0-2.28-.01-3.42Z"/>
  <path class="cls-1" d="M37.05,29.96c-.2,1.77-.03,3.12-.04,4.83,0,.84-.21.83-.96.71-.36-.07-.34-.08-.41-.49-.15-.86-.03-2.63-.04-3.61,0-.74-.01-1.49-.02-2.23,0-.2.03-1.12.16-1.25.12-.12.89-.09,1.01.04.16.16.14,1.13.33.82.48-.79.9-1.15,1.91-1.02.43.06.7.21,1.01.5.66.75.51,1.81.51,2.74,0,.69.1,3.83-.05,4.27-.08.21-.15.22-.4.26-.18.03-.69.03-.82-.1-.24-.24-.08-3.2-.08-3.79,0-.64,0-1.51-.14-2.13-.36-.76-1.5-.83-1.88.12l-.08.23-.02.08Z"/>
  <path class="cls-1" d="M43.38,39.23c-1.37-.14-1.97-1.04-1.96-2.37,0-.14.06-.66.15-.76.15-.16.88-.16,1.03,0,.23.25.01,2.21,1.54,1.85.93-.22.74-1.37.73-2.13,0-.45,0-.91,0-1.36h-.06c-.41.89-1.2,1.22-2.14,1-1.13-.27-1.26-1.43-1.28-2.4v-3.26c0-.61.15-1.1.45-1.48.56-.63,1.67-.79,2.37-.28.7.5.64,1.31.78.49.01-.07.12-.55.15-.58.12-.12.69-.11.87-.08.21.04.15.01.21.31.12.63.04,2.45.04,3.22,0,1.81,0,3.62,0,5.43-.05,1.83-1.07,2.56-2.87,2.38ZM42.78,32.81c.01.8.17,1.64,1.19,1.43.2-.04.31-.11.46-.24.62-.68.49-1.21.49-2.07,0-1.06.29-3.35-1.48-2.92-.84.21-.66,1.25-.66,1.95,0,.62,0,1.23,0,1.85Z"/>
  <path class="cls-1" d="M47.12,30.15c0-.81.19-1.41.58-1.81.39-.39.99-.59,1.81-.59,2.46.06,2.46,1.61,2.42,3.61,0,.26-.02.37-.08.61-1.15.22-1.96-.07-2.87.08-.44.07-.47.08-.53.53-.29,1.97,1.63,2.42,2.06.91.2-.68.39-.75,1.18-.63.19.03.23.1.25.32.08.85-.35,1.85-1.19,2.21-.97.42-2.73.34-3.32-.73-.44-.79-.31-2.54-.31-3.49v-1.02ZM48.47,30.66c.02.43-.02.33.53.38.55.06.97.04,1.5-.1.18-.61.18-1.72-.6-1.93-.21-.06-.37-.04-.58-.03-.9.19-.9.87-.85,1.68Z"/>
  <path class="cls-1" d="M52.69,30.15c0-.81.19-1.41.58-1.81.39-.39.99-.59,1.81-.59,2.46.06,2.46,1.61,2.42,3.61,0,.26-.02.37-.08.61-1.15.22-1.96-.07-2.87.08-.44.07-.47.08-.53.53-.29,1.97,1.63,2.42,2.06.91.2-.68.39-.75,1.18-.63.19.03.23.1.25.32.08.85-.35,1.85-1.19,2.21-.97.42-2.73.34-3.32-.73-.44-.79-.31-2.54-.31-3.49v-1.02ZM54.03,30.66c.02.43-.02.33.53.38.55.06.97.04,1.5-.1.18-.61.18-1.72-.6-1.93-.21-.06-.37-.04-.58-.03-.9.19-.9.87-.85,1.68Z"/>
</svg>