<?xml version="1.0" encoding="UTF-8"?>
<svg id="Layer_1" xmlns="http://www.w3.org/2000/svg" viewBox="0 0 1080 1080">
  <defs>
    <style>
      .cls-1 {
        fill: #fcfbfa;
      }
    </style>
  </defs>
  <g>
    <path class="cls-1" d="M313.9,431.02c-.1,2.41-1.37,8.47-1.37,8.47l-.98,4.43c-.07.42-.49.85-.49.85-.81.81-2.84,1.53-2.84,1.53-13.79,3.98-47.03,3.65-47.03,3.65l-18.35-.07c-7.23-.2-15.9-.29-24.77-.33-16-.03-32.62.13-42.56.26-3.03-.16-5.93-.13-8.73.13-2.25.16-4.4.49-6.52.91-5.15,1.11-9.61,2.93-13.43,5.57-3.78,2.61-6.84,7.14-9.19,13.56-2.35,6.42-3.81,14.67-4.33,24.8,0,1.08-.1,2.61-.29,4.6-.72,6.88-.91,13.92-.52,21.15.36,7.23,1.17,13.85,2.44,19.91,1.24,6.06,4.27,11.34,9.06,15.87,4.79,4.5,11.08,7.5,18.84,8.93,3.98.55,7.33.95,10.04,1.24,2.7.26,5.41.16,8.11-.29,2.74-.42,4.86-1.3,6.39-2.57,1.53-1.27,2.8-3.1,3.78-5.54,1.01-2.44,1.6-5.57,1.76-9.35.2-5.8.16-10.04-.13-12.74-.26-2.7-1.17-4.66-2.7-5.83-1.53-1.17-3.13-1.73-4.76-1.63-1.6.1-4.5,0-8.67-.26-4.14-.26-8.21-.85-12.19-1.76-2.7-11.02-2.15-20.95,1.63-29.82,7.4-1.43,13.65-2.44,18.71-3,3.42-.52,11.02-.59,22.78-.13,11.73.46,18.67,1.69,20.86,3.68,3.26,3.06,4.69,15.45,4.33,37.12v19.39c0,2.05-.1,4.86-.26,8.38-.2,3.55-.46,6.19-.81,8.02-.36,1.79-.88,4.14-1.5,7.04-.62,2.9-1.5,5.12-2.57,6.65-1.08,1.53-2.35,3.36-3.78,5.41-1.47,2.09-3.19,3.72-5.15,4.89-2.02,1.17-4.3,2.35-6.94,3.52-2.61,1.17-5.57,2.12-8.93,2.84-3.36.75-7.1,1.27-11.24,1.63-20.24,1.82-36.83,1.6-49.73-.68-12.94-2.25-23.37-7.27-31.32-15.02-7.95-7.76-13.52-17.79-16.69-30.08-3.16-12.29-4.82-28.48-4.99-48.53.16-12.84.81-23.86,1.89-33.08,1.08-9.22,3.03-17.57,5.83-25.06,2.8-7.5,6.45-13.56,10.95-18.15,4.53-4.63,10.3-8.47,17.37-11.54,7.04-3.06,15.25-5.15,24.67-6.22,4.53-.55,9.48-.88,14.86-1.08l.1-.16c27.54-3.42,141.83,6.19,141.83,6.19,3.72.2,5.25,2.15,5.25,2.15,2.61,2.61,2.38,7.76,2.28,10.17Z"/>
    <path class="cls-1" d="M327.64,422.18l2.88-.96c6.61-1.92,11.73-1.12,15.35,2.4,3.62,3.52,4.96,7.73,4,12.63-.96,4.9-3.68,8.05-8.16,9.44-3.31.85-6.37,1.04-9.2.56-2.83-.48-5.12-1.65-6.88-3.52-1.76-1.87-2.99-3.94-3.68-6.24-.69-2.29-.56-4.74.4-7.36.96-2.61,2.72-4.93,5.28-6.96Z"/>
  </g>
  <path class="cls-1" d="M249.81,507.36c0-14.31,3.44-24.96,10.31-31.92,6.87-6.97,17.56-10.45,32.06-10.45,43.57,1.13,43.48,28.43,42.77,63.87-.09,4.51-.28,6.46-1.44,10.8-20.33,3.9-34.64-1.18-50.81,1.37-7.81,1.23-8.25,1.44-9.43,9.4-5.2,34.83,28.75,42.7,36.5,16.09,3.5-12.04,6.97-13.23,20.78-11.18,3.39.5,4.1,1.8,4.47,5.63,1.46,15.08-6.23,32.78-20.98,39.1-17.11,7.34-48.27,5.98-58.77-12.89-7.77-13.98-5.46-44.94-5.46-61.73v-18.08ZM273.58,516.31c.44,7.65-.41,5.77,9.37,6.79,9.72,1.01,17.11.76,26.58-1.71,3.15-10.74,3.17-30.32-10.63-34.12-3.71-1.02-6.5-.78-10.25-.61-15.98,3.29-15.88,15.34-15.07,29.65Z"/>
  <path class="cls-1" d="M426.23,562.01c.6-7.91-1.61-33.96,5.01-37.19,4.45-2.17,13.97-1.59,15.8,4.63,2.85,9.7.93,40.15-1.37,50.59-6.22,23.29-28.96,27.16-50.06,22.6-34.44-9.15-28.39-43.12-28.27-71.4.17-9.74,2.09-34.51-3.16-41.94-4.25-3.52-29.86-2.49-23-16.42,9.52-11.4,26.18.7,26.04-16-.09-10.48-2.49-31.14,14.5-27.96,17.93,3.37-.9,32,23.46,37.82,7.53,1.8,7.99,9.47,7.03,16.2-1.38,9.67-15.85,2.16-19.02,9.51-4.8,11.14-3.23,65.09,1.11,77.39,8.32,15.93,28.59,17.35,31.94-7.84Z"/>
  <path class="cls-1" d="M493.97,667.75c-24.15-2.42-34.9-18.32-34.73-41.85.02-2.51.97-11.7,2.59-13.41,2.71-2.87,15.55-2.81,18.22.16,4.05,4.5.24,39.09,27.31,32.68,16.39-3.88,13-24.26,12.97-37.65-.02-8.02,0-16.03,0-24.05h-1.13c-7.16,15.82-21.13,21.59-37.85,17.63-19.95-4.72-22.29-25.23-22.61-42.49v-57.62c0-10.74,2.64-19.44,7.91-26.13,9.89-11.13,29.49-13.91,41.87-4.95,12.29,8.89,11.28,23.21,13.81,8.75.22-1.24,2.14-9.68,2.62-10.19,2.08-2.16,12.11-2.01,15.34-1.34,3.8.78,2.63.2,3.68,5.55,2.17,11.07.65,43.39.65,56.86,0,32,0,64.01,0,96.02-.86,32.42-18.91,45.2-50.65,42.02ZM483.31,554.26c.25,14.17,3.08,28.94,21.12,25.29,3.47-.7,5.53-1.9,8.12-4.24,11.05-11.96,8.61-21.3,8.65-36.61.05-18.75,5.21-59.26-26.22-51.54-14.83,3.64-11.69,22.16-11.67,34.46,0,10.88,0,21.77,0,32.65Z"/>
  <path class="cls-1" d="M584.84,425.14c8.72,31.1-28.55,33.33-23.09-.42,1.41-8.68,18.62-6.61,22.06-1.67l1.03,2.09ZM561.51,487.35c-.02-9.78.97-22.24,14.27-20.52,14.06,1.83,10.65,21.78,10.58,32.66-.18,28.31.28,56.84.06,85.02-.04,5.17.28,14.41-5.35,16.81-4.17,1.78-13.61,2.01-16.6-.86-4.38-4.19-2.73-44.49-2.76-52.63-.07-20.17-.15-40.33-.2-60.49Z"/>
  <path class="cls-1" d="M629.23,504.02c-3.54,31.32-.48,55.08-.71,85.39-.11,14.9-3.67,14.76-17.04,12.57-6.44-1.31-5.95-1.46-7.19-8.65-2.62-15.24-.61-46.41-.73-63.78-.08-13.13-.22-26.26-.37-39.39-.05-3.58.53-19.76,2.85-22.01,2.12-2.06,15.74-1.53,17.91.68,2.85,2.91,2.55,20,5.87,14.52,8.49-14.01,15.9-20.41,33.72-17.99,7.6,1.03,12.37,3.69,17.9,8.81,11.69,13.3,9.06,31.93,9.05,48.4.01,12.15,1.82,67.76-.88,75.41-1.34,3.8-2.61,3.83-7.16,4.64-3.19.57-12.25.47-14.44-1.72-4.28-4.29-1.47-56.49-1.49-66.98-.03-11.25.05-26.77-2.42-37.6-6.35-13.48-26.52-14.61-33.24,2.19l-1.37,4.12-.27,1.39Z"/>
  <path class="cls-1" d="M741.17,667.75c-24.15-2.42-34.9-18.32-34.73-41.85.02-2.51.97-11.7,2.59-13.41,2.71-2.87,15.55-2.81,18.22.16,4.05,4.5.24,39.09,27.31,32.68,16.39-3.88,13-24.26,12.97-37.65-.02-8.02,0-16.03,0-24.05h-1.13c-7.16,15.82-21.13,21.59-37.85,17.63-19.95-4.72-22.29-25.23-22.61-42.49v-57.62c0-10.74,2.64-19.44,7.91-26.13,9.89-11.13,29.49-13.91,41.87-4.95,12.29,8.89,11.28,23.21,13.81,8.75.22-1.24,2.14-9.68,2.62-10.19,2.08-2.16,12.11-2.01,15.34-1.34,3.8.78,2.63.2,3.68,5.55,2.17,11.07.65,43.39.65,56.86,0,32,0,64.01,0,96.02-.86,32.42-18.91,45.2-50.65,42.02ZM730.51,554.26c.25,14.17,3.08,28.94,21.12,25.29,3.47-.7,5.53-1.9,8.12-4.24,11.05-11.96,8.61-21.3,8.65-36.61.05-18.75,5.21-59.26-26.22-51.54-14.83,3.64-11.69,22.16-11.67,34.46,0,10.88,0,21.77,0,32.65Z"/>
  <path class="cls-1" d="M807.36,507.36c0-14.31,3.44-24.96,10.31-31.92,6.87-6.97,17.56-10.45,32.06-10.45,43.57,1.13,43.48,28.43,42.77,63.87-.09,4.51-.28,6.46-1.44,10.8-20.33,3.9-34.64-1.18-50.81,1.37-7.81,1.23-8.25,1.44-9.43,9.4-5.2,34.83,28.75,42.7,36.5,16.09,3.5-12.04,6.97-13.23,20.78-11.18,3.39.5,4.1,1.8,4.47,5.63,1.46,15.08-6.23,32.78-20.98,39.1-17.11,7.34-48.27,5.98-58.77-12.89-7.77-13.98-5.46-44.94-5.46-61.73v-18.08ZM831.13,516.31c.44,7.65-.41,5.77,9.37,6.79,9.72,1.01,17.11.76,26.58-1.71,3.15-10.74,3.17-30.32-10.63-34.12-3.71-1.02-6.5-.78-10.25-.61-15.98,3.29-15.88,15.34-15.07,29.65Z"/>
  <path class="cls-1" d="M905.75,507.36c0-14.31,3.44-24.96,10.31-31.92,6.87-6.97,17.56-10.45,32.06-10.45,43.57,1.13,43.48,28.43,42.77,63.87-.09,4.51-.28,6.46-1.44,10.8-20.33,3.9-34.64-1.18-50.81,1.37-7.81,1.23-8.25,1.44-9.43,9.4-5.2,34.83,28.75,42.7,36.5,16.09,3.5-12.04,6.97-13.23,20.78-11.18,3.39.5,4.1,1.8,4.47,5.63,1.46,15.08-6.23,32.78-20.98,39.1-17.11,7.34-48.27,5.98-58.77-12.89-7.77-13.98-5.46-44.94-5.46-61.73v-18.08ZM929.52,516.31c.44,7.65-.41,5.77,9.37,6.79,9.72,1.01,17.11.76,26.58-1.71,3.15-10.74,3.17-30.32-10.63-34.12-3.71-1.02-6.5-.78-10.25-.61-15.98,3.29-15.88,15.34-15.07,29.65Z"/>
</svg>