<?xml version="1.0" encoding="UTF-8"?>
<svg id="Layer_1" xmlns="http://www.w3.org/2000/svg" viewBox="0 0 48 48">
  <defs>
    <style>
      .cls-1 {
        fill: #fcfbfa;
      }
    </style>
  </defs>
  <g>
    <path class="cls-1" d="M14.49,19.42c0,.1-.06.36-.06.36l-.04.19s-.02.04-.02.04c-.03.03-.12.06-.12.06-.58.17-1.98.15-1.98.15h-.77c-.3-.01-.67-.02-1.04-.02-.67,0-1.37,0-1.79.01-.13,0-.25,0-.37,0-.09,0-.18.02-.27.04-.22.05-.4.12-.56.23-.16.11-.29.3-.39.57-.1.27-.16.62-.18,1.04,0,.05,0,.11-.01.19-.03.29-.04.59-.02.89.02.3.05.58.1.84.05.25.18.48.38.67.2.19.47.32.79.38.17.02.31.04.42.05.11.01.23,0,.34-.01.12-.02.2-.05.27-.11.06-.05.12-.13.16-.23.04-.1.07-.23.07-.39,0-.24,0-.42,0-.54-.01-.11-.05-.2-.11-.25-.06-.05-.13-.07-.2-.07-.07,0-.19,0-.36-.01-.17-.01-.35-.04-.51-.07-.11-.46-.09-.88.07-1.25.31-.06.57-.1.79-.13.14-.02.46-.02.96,0,.49.02.79.07.88.15.14.13.2.65.18,1.56v.82c0,.09,0,.2-.01.35,0,.15-.02.26-.03.34-.02.08-.04.17-.06.3-.03.12-.06.22-.11.28-.05.06-.1.14-.16.23-.06.09-.13.16-.22.21-.08.05-.18.1-.29.15-.11.05-.23.09-.38.12-.14.03-.3.05-.47.07-.85.08-1.55.07-2.09-.03-.54-.09-.98-.31-1.32-.63-.33-.33-.57-.75-.7-1.26-.13-.52-.2-1.2-.21-2.04,0-.54.03-1,.08-1.39.05-.39.13-.74.25-1.05s.27-.57.46-.76c.19-.19.43-.36.73-.49.3-.13.64-.22,1.04-.26.19-.02.4-.04.62-.05h0c1.16-.15,5.96.25,5.96.25.16,0,.22.09.22.09.11.11.1.33.1.43Z"/>
    <path class="cls-1" d="M15.07,19.05l.12-.04c.28-.08.49-.05.65.1.15.15.21.33.17.53-.04.21-.15.34-.34.4-.14.04-.27.04-.39.02-.12-.02-.22-.07-.29-.15s-.13-.17-.15-.26c-.03-.1-.02-.2.02-.31.04-.11.11-.21.22-.29Z"/>
  </g>
  <path class="cls-1" d="M11.8,22.63c0-.6.14-1.05.43-1.34.29-.29.74-.44,1.35-.44,1.83.05,1.83,1.2,1.8,2.69,0,.19-.01.27-.06.45-.85.16-1.46-.05-2.14.06-.33.05-.35.06-.4.4-.22,1.46,1.21,1.8,1.53.68.15-.51.29-.56.87-.47.14.02.17.08.19.24.06.63-.26,1.38-.88,1.64-.72.31-2.03.25-2.47-.54-.33-.59-.23-1.89-.23-2.6v-.76ZM12.8,23c.02.32-.02.24.39.29.41.04.72.03,1.12-.07.13-.45.13-1.27-.45-1.43-.16-.04-.27-.03-.43-.03-.67.14-.67.65-.63,1.25Z"/>
  <path class="cls-1" d="M19.22,24.93c.03-.33-.07-1.43.21-1.56.19-.09.59-.07.66.19.12.41.04,1.69-.06,2.13-.26.98-1.22,1.14-2.1.95-1.45-.38-1.19-1.81-1.19-3,0-.41.09-1.45-.13-1.76-.18-.15-1.26-.1-.97-.69.4-.48,1.1.03,1.09-.67,0-.44-.1-1.31.61-1.18.75.14-.04,1.35.99,1.59.32.08.34.4.3.68-.06.41-.67.09-.8.4-.2.47-.14,2.74.05,3.25.35.67,1.2.73,1.34-.33Z"/>
  <path class="cls-1" d="M22.06,29.37c-1.02-.1-1.47-.77-1.46-1.76,0-.11.04-.49.11-.56.11-.12.65-.12.77,0,.17.19,0,1.64,1.15,1.37.69-.16.55-1.02.55-1.58,0-.34,0-.67,0-1.01h-.05c-.3.67-.89.91-1.59.74-.84-.2-.94-1.06-.95-1.79v-2.42c0-.45.11-.82.33-1.1.42-.47,1.24-.59,1.76-.21.52.37.47.98.58.37,0-.05.09-.41.11-.43.09-.09.51-.08.64-.06.16.03.11,0,.15.23.09.47.03,1.82.03,2.39,0,1.35,0,2.69,0,4.04-.04,1.36-.8,1.9-2.13,1.77ZM21.62,24.6c.01.6.13,1.22.89,1.06.15-.03.23-.08.34-.18.46-.5.36-.9.36-1.54,0-.79.22-2.49-1.1-2.17-.62.15-.49.93-.49,1.45,0,.46,0,.92,0,1.37Z"/>
  <path class="cls-1" d="M25.89,19.17c.37,1.31-1.2,1.4-.97-.02.06-.36.78-.28.93-.07l.04.09ZM24.9,21.79c0-.41.04-.94.6-.86.59.08.45.92.44,1.37,0,1.19.01,2.39,0,3.57,0,.22.01.61-.22.71-.18.07-.57.08-.7-.04-.18-.18-.11-1.87-.12-2.21,0-.85,0-1.7,0-2.54Z"/>
  <path class="cls-1" d="M27.75,22.49c-.15,1.32-.02,2.32-.03,3.59,0,.63-.15.62-.72.53-.27-.06-.25-.06-.3-.36-.11-.64-.03-1.95-.03-2.68,0-.55,0-1.1-.02-1.66,0-.15.02-.83.12-.93.09-.09.66-.06.75.03.12.12.11.84.25.61.36-.59.67-.86,1.42-.76.32.04.52.16.75.37.49.56.38,1.34.38,2.04,0,.51.08,2.85-.04,3.17-.06.16-.11.16-.3.19-.13.02-.51.02-.61-.07-.18-.18-.06-2.38-.06-2.82,0-.47,0-1.13-.1-1.58-.27-.57-1.11-.61-1.4.09l-.06.17v.06Z"/>
  <path class="cls-1" d="M32.46,29.37c-1.02-.1-1.47-.77-1.46-1.76,0-.11.04-.49.11-.56.11-.12.65-.12.77,0,.17.19,0,1.64,1.15,1.37.69-.16.55-1.02.55-1.58,0-.34,0-.67,0-1.01h-.05c-.3.67-.89.91-1.59.74-.84-.2-.94-1.06-.95-1.79v-2.42c0-.45.11-.82.33-1.1.42-.47,1.24-.59,1.76-.21.52.37.47.98.58.37,0-.05.09-.41.11-.43.09-.09.51-.08.64-.06.16.03.11,0,.15.23.09.47.03,1.82.03,2.39,0,1.35,0,2.69,0,4.04-.04,1.36-.8,1.9-2.13,1.77ZM32.01,24.6c.01.6.13,1.22.89,1.06.15-.03.23-.08.34-.18.46-.5.36-.9.36-1.54,0-.79.22-2.49-1.1-2.17-.62.15-.49.93-.49,1.45,0,.46,0,.92,0,1.37Z"/>
  <path class="cls-1" d="M35.24,22.63c0-.6.14-1.05.43-1.34.29-.29.74-.44,1.35-.44,1.83.05,1.83,1.2,1.8,2.69,0,.19-.01.27-.06.45-.85.16-1.46-.05-2.14.06-.33.05-.35.06-.4.4-.22,1.46,1.21,1.8,1.53.68.15-.51.29-.56.87-.47.14.02.17.08.19.24.06.63-.26,1.38-.88,1.64-.72.31-2.03.25-2.47-.54-.33-.59-.23-1.89-.23-2.6v-.76ZM36.24,23c.02.32-.02.24.39.29.41.04.72.03,1.12-.07.13-.45.13-1.27-.45-1.43-.16-.04-.27-.03-.43-.03-.67.14-.67.65-.63,1.25Z"/>
  <path class="cls-1" d="M39.38,22.63c0-.6.14-1.05.43-1.34.29-.29.74-.44,1.35-.44,1.83.05,1.83,1.2,1.8,2.69,0,.19-.01.27-.06.45-.85.16-1.46-.05-2.14.06-.33.05-.35.06-.4.4-.22,1.46,1.21,1.8,1.53.68.15-.51.29-.56.87-.47.14.02.17.08.19.24.06.63-.26,1.38-.88,1.64-.72.31-2.03.25-2.47-.54-.33-.59-.23-1.89-.23-2.6v-.76ZM40.38,23c.02.32-.02.24.39.29.41.04.72.03,1.12-.07.13-.45.13-1.27-.45-1.43-.16-.04-.27-.03-.43-.03-.67.14-.67.65-.63,1.25Z"/>
</svg>