<?xml version="1.0" encoding="UTF-8"?>
<svg id="Layer_1" xmlns="http://www.w3.org/2000/svg" viewBox="0 0 300 300">
  <defs>
    <style>
      .cls-1 {
        fill: #fcfbfa;
      }
    </style>
  </defs>
  <g>
    <path class="cls-1" d="M230.83,84.1c-.1,2.04-1.17,7.23-1.17,7.23l-.84,3.82c-.07.37-.44.7-.44.7-.7.7-2.41,1.34-2.41,1.34-11.82,3.38-40.29,3.11-40.29,3.11l-15.71-.07c-6.2-.17-13.63-.23-21.2-.27-13.7-.03-27.93.1-36.47.23-2.58-.17-5.06-.13-7.47.1-1.91.13-3.75.4-5.59.77-4.39.97-8.21,2.51-11.49,4.79-3.25,2.21-5.86,6.1-7.87,11.59-2.01,5.53-3.25,12.56-3.72,21.27,0,.9-.07,2.21-.23,3.92-.64,5.89-.8,11.92-.47,18.12.34,6.2,1,11.86,2.11,17.05,1.07,5.19,3.65,9.71,7.77,13.6,4.09,3.85,9.48,6.43,16.11,7.64,3.42.47,6.3.8,8.61,1.07,2.31.23,4.62.13,6.93-.27,2.34-.33,4.19-1.11,5.49-2.18,1.31-1.11,2.38-2.68,3.22-4.76.87-2.11,1.37-4.79,1.51-8,.17-4.99.17-8.61-.1-10.92-.23-2.31-1-3.99-2.31-4.99-1.31-1-2.68-1.47-4.09-1.41-1.37.1-3.85,0-7.4-.23-3.55-.2-7.03-.7-10.45-1.51-2.31-9.41-1.84-17.92,1.41-25.52,6.33-1.24,11.69-2.11,16.01-2.58,2.91-.44,9.45-.5,19.49-.1,10.05.4,16.01,1.44,17.89,3.15,2.78,2.61,4.02,13.23,3.72,31.79v16.61c0,1.78-.1,4.15-.23,7.17-.17,3.05-.4,5.33-.7,6.87-.3,1.54-.74,3.55-1.27,6.03-.54,2.48-1.31,4.39-2.21,5.69-.94,1.31-2.01,2.88-3.25,4.66-1.24,1.78-2.71,3.18-4.39,4.19-1.74,1-3.68,2.01-5.96,3.01-2.24,1-4.76,1.81-7.64,2.41-2.88.64-6.1,1.11-9.65,1.41-17.32,1.54-31.52,1.37-42.57-.6-11.09-1.91-20.03-6.23-26.83-12.86-6.83-6.63-11.59-15.24-14.3-25.76-2.71-10.52-4.12-24.38-4.25-41.57.13-10.99.67-20.43,1.61-28.34.9-7.9,2.58-15.04,4.99-21.47,2.41-6.4,5.53-11.59,9.38-15.54,3.89-3.95,8.81-7.23,14.87-9.88,6.03-2.61,13.06-4.39,21.13-5.33,3.89-.47,8.14-.74,12.73-.9l.1-.17c23.58-2.91,121.45,5.33,121.45,5.33,3.18.17,4.49,1.84,4.49,1.84,2.24,2.21,2.04,6.63,1.98,8.71Z"/>
    <path class="cls-1" d="M242.59,76.51l2.47-.82c5.66-1.64,10.04-.96,13.15,2.06,3.1,3.01,4.25,6.62,3.42,10.82-.82,4.2-3.15,6.9-6.99,8.08-2.83.73-5.46.89-7.88.48-2.42-.41-4.38-1.41-5.89-3.01-1.51-1.6-2.56-3.38-3.15-5.34-.6-1.96-.48-4.06.34-6.3.82-2.24,2.33-4.22,4.52-5.96Z"/>
  </g>
  <path class="cls-1" d="M175.94,149.47c0-12.26,2.94-21.37,8.83-27.34,5.89-5.97,15.04-8.95,27.46-8.95,37.32.97,37.24,24.35,36.63,54.7-.08,3.86-.24,5.53-1.23,9.25-17.41,3.34-29.67-1.01-43.51,1.17-6.69,1.05-7.06,1.23-8.08,8.05-4.45,29.83,24.62,36.57,31.26,13.78,3-10.31,5.97-11.33,17.79-9.58,2.9.43,3.51,1.54,3.83,4.82,1.25,12.91-5.34,28.07-17.97,33.49-14.66,6.28-41.34,5.12-50.34-11.04-6.66-11.97-4.67-38.49-4.67-52.87v-15.48ZM196.29,157.13c.37,6.56-.35,4.94,8.02,5.82,8.33.87,14.65.65,22.77-1.46,2.7-9.2,2.71-25.97-9.1-29.22-3.18-.87-5.57-.67-8.78-.52-13.69,2.82-13.6,13.14-12.91,25.39Z"/>
</svg>