<?xml version="1.0" encoding="UTF-8"?>
<svg id="Layer_1" xmlns="http://www.w3.org/2000/svg" viewBox="0 0 1080 1920">
  <defs>
    <style>
      .cls-1 {
        fill: #fcfbfa;
      }
    </style>
  </defs>
  <g>
    <path class="cls-1" d="M843.65,712.46c-.38,7.67-4.4,27.18-4.4,27.18l-3.15,14.34c-.25,1.38-1.64,2.64-1.64,2.64-2.64,2.64-9.06,5.03-9.06,5.03-44.41,12.71-151.36,11.7-151.36,11.7l-59.01-.25c-23.28-.63-51.21-.88-79.64-1.01-51.46-.13-104.93.38-137.02.88-9.69-.63-19-.5-28.06.38-7.17.5-14.09,1.51-21.01,2.89-16.48,3.65-30.83,9.44-43.16,17.99-12.2,8.3-22.02,22.9-29.57,43.53-7.55,20.76-12.2,47.18-13.97,79.9,0,3.4-.25,8.3-.88,14.72-2.39,22.14-3.02,44.79-1.76,68.07,1.26,23.28,3.78,44.54,7.93,64.04,4.03,19.5,13.71,36.49,29.19,51.08,15.35,14.47,35.61,24.16,60.52,28.69,12.83,1.76,23.65,3.02,32.34,4.03,8.68.88,17.36.5,26.04-1.01,8.81-1.26,15.73-4.15,20.63-8.18,4.91-4.15,8.93-10.07,12.08-17.87,3.27-7.93,5.16-17.99,5.66-30.07.63-18.75.63-32.34-.38-41.02-.88-8.68-3.77-14.97-8.68-18.75-4.91-3.78-10.07-5.54-15.35-5.28-5.16.38-14.47,0-27.81-.88-13.34-.75-26.42-2.64-39.26-5.66-8.68-35.36-6.92-67.31,5.28-95.87,23.78-4.66,43.91-7.93,60.14-9.69,10.95-1.64,35.48-1.89,73.23-.38,37.75,1.51,60.14,5.41,67.19,11.83,10.44,9.81,15.1,49.7,13.97,119.4v62.41c0,6.67-.38,15.6-.88,26.93-.63,11.45-1.51,20-2.64,25.79-1.13,5.79-2.77,13.34-4.78,22.65-2.01,9.31-4.91,16.48-8.3,21.39-3.52,4.91-7.55,10.82-12.2,17.49-4.66,6.67-10.19,11.95-16.48,15.73-6.54,3.77-13.84,7.55-22.4,11.32-8.43,3.78-17.87,6.79-28.69,9.06-10.82,2.39-22.9,4.15-36.24,5.28-65.05,5.79-118.4,5.16-159.92-2.26-41.65-7.17-75.24-23.4-100.78-48.31-25.67-24.91-43.53-57.25-53.72-96.76-10.19-39.51-15.48-91.6-15.98-156.14.5-41.27,2.52-76.75,6.04-106.44,3.4-29.69,9.69-56.49,18.75-80.65,9.06-24.03,20.76-43.53,35.23-58.38,14.59-14.85,33.09-27.18,55.86-37.12,22.65-9.81,49.07-16.48,79.39-20,14.59-1.76,30.57-2.77,47.81-3.4l.38-.63c88.58-10.95,456.22,20.01,456.22,20.01,11.95.63,16.86,6.92,16.86,6.92,8.43,8.3,7.67,24.91,7.42,32.71Z"/>
    <path class="cls-1" d="M887.83,683.94l9.26-3.09c21.27-6.17,37.73-3.6,49.4,7.72,11.66,11.32,15.95,24.87,12.86,40.65-3.09,15.78-11.83,25.9-26.24,30.36-10.64,2.75-20.5,3.34-29.58,1.8-9.1-1.54-16.47-5.31-22.13-11.32-5.66-6-9.61-12.69-11.83-20.07-2.24-7.37-1.8-15.26,1.29-23.67,3.09-8.4,8.75-15.86,16.98-22.38Z"/>
  </g>
  <path class="cls-1" d="M637.43,957.99c0-46.05,11.06-80.29,33.17-102.7,22.12-22.42,56.5-33.63,103.16-33.63,140.19,3.64,139.88,91.47,137.59,205.47-.3,14.51-.91,20.79-4.63,34.75-65.41,12.56-111.46-3.79-163.46,4.41-25.13,3.96-26.53,4.63-30.35,30.24-16.73,112.04,92.5,137.39,117.42,51.77,11.27-38.72,22.42-42.55,66.84-35.98,10.91,1.62,13.2,5.79,14.39,18.1,4.69,48.51-20.04,105.46-67.49,125.8-55.06,23.61-155.31,19.24-189.09-41.47-25.01-44.97-17.55-144.57-17.55-198.6v-58.16ZM713.89,986.77c1.4,24.63-1.32,18.57,30.14,21.85,31.29,3.26,55.05,2.46,85.52-5.49,10.14-34.54,10.19-97.56-34.19-109.77-11.94-3.28-20.92-2.52-32.99-1.97-51.41,10.58-51.1,49.36-48.48,95.38Z"/>
</svg>