<?xml version="1.0" encoding="UTF-8"?>
<svg id="Layer_1" xmlns="http://www.w3.org/2000/svg" viewBox="0 0 1024 1024">
  <defs>
    <style>
      .cls-1 {
        fill: #f96;
      }
    </style>
  </defs>
  <g>
    <path class="cls-1" d="M298.64,409.17c-.09,2.28-1.29,8-1.29,8l-.92,4.18c-.06.4-.46.8-.46.8-.77.77-2.68,1.45-2.68,1.45-13.01,3.75-44.38,3.44-44.38,3.44l-17.31-.06c-6.83-.18-15.01-.28-23.37-.31-15.1-.03-30.78.12-40.16.25-2.86-.15-5.6-.12-8.24.12-2.12.15-4.15.46-6.15.86-4.86,1.05-9.07,2.77-12.67,5.26-3.57,2.46-6.46,6.73-8.67,12.79-2.21,6.06-3.6,13.84-4.09,23.4,0,1.01-.09,2.46-.28,4.34-.68,6.49-.86,13.13-.49,19.96.34,6.83,1.11,13.07,2.31,18.79,1.17,5.72,4.03,10.7,8.55,14.98,4.52,4.24,10.46,7.07,17.77,8.43,3.75.52,6.92.89,9.47,1.17,2.55.25,5.1.15,7.66-.28,2.58-.4,4.58-1.23,6.03-2.43,1.45-1.2,2.64-2.92,3.57-5.23.95-2.31,1.51-5.26,1.66-8.83.18-5.47.15-9.47-.12-12.02-.25-2.55-1.11-4.4-2.55-5.5-1.45-1.11-2.95-1.63-4.49-1.54-1.51.09-4.24,0-8.18-.25-3.91-.25-7.75-.8-11.5-1.66-2.55-10.39-2.03-19.77,1.54-28.14,6.98-1.35,12.89-2.31,17.65-2.83,3.23-.49,10.39-.55,21.5-.12,11.07.43,17.62,1.6,19.68,3.48,3.08,2.89,4.43,14.58,4.09,35.03v18.3c0,1.94-.09,4.58-.25,7.9-.18,3.35-.43,5.84-.77,7.56-.34,1.69-.83,3.91-1.41,6.64-.58,2.74-1.41,4.83-2.43,6.27-1.01,1.45-2.21,3.17-3.57,5.1-1.38,1.97-3.01,3.51-4.86,4.61-1.91,1.11-4.06,2.21-6.55,3.32-2.46,1.11-5.26,2-8.43,2.68-3.17.71-6.7,1.2-10.61,1.54-19.1,1.72-34.75,1.51-46.93-.65-12.21-2.12-22.05-6.86-29.55-14.18-7.5-7.32-12.76-16.79-15.75-28.38-2.98-11.59-4.55-26.88-4.7-45.79.15-12.12.77-22.51,1.78-31.21,1.01-8.7,2.86-16.58,5.5-23.65,2.64-7.07,6.09-12.79,10.33-17.13,4.27-4.37,9.72-8,16.39-10.89,6.64-2.89,14.39-4.86,23.28-5.87,4.27-.52,8.95-.83,14.02-1.01l.09-.15c25.99-3.23,133.83,5.84,133.83,5.84,3.51.18,4.95,2.03,4.95,2.03,2.46,2.46,2.25,7.32,2.15,9.59Z"/>
    <path class="cls-1" d="M311.61,400.82l2.72-.91c6.24-1.81,11.07-1.06,14.49,2.26,3.42,3.32,4.68,7.29,3.77,11.92-.91,4.63-3.47,7.6-7.7,8.9-3.12.81-6.01.98-8.68.53-2.67-.45-4.83-1.56-6.49-3.32-1.66-1.76-2.82-3.72-3.47-5.89-.66-2.16-.53-4.48.38-6.94.91-2.46,2.57-4.65,4.98-6.56Z"/>
  </g>
  <path class="cls-1" d="M238.17,481.2c0-13.51,3.24-23.55,9.73-30.12,6.49-6.58,16.57-9.86,30.26-9.86,41.12,1.07,41.03,26.83,40.35,60.27-.09,4.26-.27,6.1-1.36,10.19-19.19,3.68-32.69-1.11-47.94,1.29-7.37,1.16-7.78,1.36-8.9,8.87-4.91,32.86,27.13,40.3,34.44,15.18,3.3-11.36,6.58-12.48,19.6-10.55,3.2.47,3.87,1.7,4.22,5.31,1.38,14.23-5.88,30.93-19.8,36.9-16.15,6.92-45.55,5.64-55.46-12.16-7.34-13.19-5.15-42.4-5.15-58.25v-17.06ZM260.6,489.64c.41,7.22-.39,5.45,8.84,6.41,9.18.95,16.15.72,25.08-1.61,2.97-10.13,2.99-28.61-10.03-32.2-3.5-.96-6.14-.74-9.67-.58-15.08,3.1-14.99,14.48-14.22,27.98Z"/>
  <path class="cls-1" d="M404.64,532.77c.56-7.47-1.52-32.05,4.73-35.1,4.2-2.05,13.18-1.5,14.9,4.37,2.69,9.15.88,37.88-1.29,47.74-5.87,21.98-27.33,25.63-47.24,21.33-32.49-8.63-26.79-40.69-26.68-67.37.16-9.19,1.97-32.56-2.98-39.57-4.01-3.32-28.18-2.35-21.7-15.5,8.98-10.76,24.7.66,24.57-15.1-.08-9.89-2.35-29.39,13.68-26.38,16.92,3.18-.85,30.2,22.13,35.69,7.1,1.7,7.54,8.94,6.64,15.29-1.3,9.13-14.96,2.04-17.95,8.97-4.53,10.51-3.05,61.42,1.05,73.03,7.85,15.03,26.98,16.37,30.14-7.4Z"/>
  <path class="cls-1" d="M468.56,632.55c-22.79-2.28-32.93-17.29-32.77-39.49.02-2.37.92-11.04,2.44-12.65,2.56-2.71,14.67-2.65,17.19.15,3.82,4.25.22,36.89,25.77,30.84,15.47-3.66,12.27-22.9,12.24-35.53-.02-7.56,0-15.13,0-22.69h-1.06c-6.76,14.93-19.94,20.37-35.71,16.64-18.83-4.46-21.03-23.81-21.34-40.1v-54.37c0-10.13,2.49-18.35,7.46-24.66,9.33-10.5,27.83-13.13,39.51-4.67,11.6,8.39,10.64,21.9,13.03,8.25.2-1.17,2.02-9.13,2.47-9.61,1.97-2.04,11.43-1.89,14.47-1.26,3.59.74,2.48.19,3.47,5.24,2.05,10.45.61,40.95.61,53.66,0,30.2,0,60.41,0,90.61-.82,30.6-17.85,42.65-47.79,39.65ZM458.51,525.46c.23,13.37,2.91,27.31,19.93,23.86,3.27-.66,5.22-1.8,7.66-4,10.42-11.28,8.12-20.1,8.16-34.54.05-17.69,4.92-55.92-24.74-48.64-14,3.44-11.03,20.91-11.02,32.51,0,10.27,0,20.54,0,30.81Z"/>
  <path class="cls-1" d="M554.31,403.62c8.23,29.34-26.94,31.45-21.79-.39,1.33-8.19,17.57-6.24,20.82-1.58l.97,1.97ZM532.3,462.32c-.02-9.23.92-20.99,13.47-19.36,13.27,1.72,10.05,20.56,9.98,30.82-.17,26.71.27,53.64.06,80.23-.04,4.88.27,13.59-5.05,15.86-3.94,1.68-12.84,1.9-15.66-.81-4.13-3.96-2.58-41.98-2.61-49.66-.07-19.03-.15-38.06-.19-57.08Z"/>
  <path class="cls-1" d="M596.2,478.05c-3.34,29.55-.45,51.98-.67,80.57-.11,14.06-3.47,13.93-16.08,11.87-6.07-1.24-5.62-1.37-6.79-8.17-2.47-14.38-.58-43.79-.68-60.18-.08-12.39-.2-24.78-.35-37.17-.04-3.38.5-18.64,2.68-20.77,2-1.95,14.85-1.44,16.9.65,2.69,2.75,2.41,18.88,5.54,13.7,8.01-13.22,15.01-19.26,31.82-16.97,7.17.97,11.67,3.48,16.89,8.31,11.03,12.55,8.55,30.13,8.54,45.67.01,11.47,1.72,63.94-.83,71.16-1.26,3.59-2.47,3.61-6.76,4.38-3.01.54-11.56.45-13.62-1.63-4.04-4.05-1.38-53.31-1.41-63.2-.03-10.61.05-25.26-2.28-35.48-5.99-12.72-25.02-13.78-31.36,2.06l-1.29,3.89-.26,1.31Z"/>
  <path class="cls-1" d="M701.82,632.55c-22.79-2.28-32.93-17.29-32.77-39.49.02-2.37.92-11.04,2.44-12.65,2.56-2.71,14.67-2.65,17.19.15,3.82,4.25.22,36.89,25.77,30.84,15.47-3.66,12.27-22.9,12.24-35.53-.02-7.56,0-15.13,0-22.69h-1.06c-6.76,14.93-19.94,20.37-35.71,16.64-18.83-4.46-21.03-23.81-21.34-40.1v-54.37c0-10.13,2.49-18.35,7.46-24.66,9.33-10.5,27.83-13.13,39.51-4.67,11.6,8.39,10.64,21.9,13.03,8.25.2-1.17,2.02-9.13,2.47-9.61,1.97-2.04,11.43-1.89,14.47-1.26,3.59.74,2.48.19,3.47,5.24,2.05,10.45.61,40.95.61,53.66,0,30.2,0,60.41,0,90.61-.82,30.6-17.85,42.65-47.79,39.65ZM691.77,525.46c.23,13.37,2.91,27.31,19.93,23.86,3.27-.66,5.22-1.8,7.66-4,10.42-11.28,8.12-20.1,8.16-34.54.05-17.69,4.92-55.92-24.74-48.64-14,3.44-11.03,20.91-11.02,32.51,0,10.27,0,20.54,0,30.81Z"/>
  <path class="cls-1" d="M764.29,481.2c0-13.51,3.24-23.55,9.73-30.12,6.49-6.58,16.57-9.86,30.26-9.86,41.12,1.07,41.03,26.83,40.35,60.27-.09,4.26-.27,6.1-1.36,10.19-19.19,3.68-32.69-1.11-47.94,1.29-7.37,1.16-7.78,1.36-8.9,8.87-4.91,32.86,27.13,40.3,34.44,15.18,3.3-11.36,6.58-12.48,19.6-10.55,3.2.47,3.87,1.7,4.22,5.31,1.38,14.23-5.88,30.93-19.8,36.9-16.15,6.92-45.55,5.64-55.46-12.16-7.34-13.19-5.15-42.4-5.15-58.25v-17.06ZM786.71,489.64c.41,7.22-.39,5.45,8.84,6.41,9.18.95,16.15.72,25.08-1.61,2.97-10.13,2.99-28.61-10.03-32.2-3.5-.96-6.14-.74-9.67-.58-15.08,3.1-14.99,14.48-14.22,27.98Z"/>
  <path class="cls-1" d="M857.13,481.2c0-13.51,3.24-23.55,9.73-30.12,6.49-6.58,16.57-9.86,30.26-9.86,41.12,1.07,41.03,26.83,40.35,60.27-.09,4.26-.27,6.1-1.36,10.19-19.19,3.68-32.69-1.11-47.94,1.29-7.37,1.16-7.78,1.36-8.9,8.87-4.91,32.86,27.13,40.3,34.44,15.18,3.3-11.36,6.58-12.48,19.6-10.55,3.2.47,3.87,1.7,4.22,5.31,1.38,14.23-5.88,30.93-19.8,36.9-16.15,6.92-45.55,5.64-55.46-12.16-7.34-13.19-5.15-42.4-5.15-58.25v-17.06ZM879.56,489.64c.41,7.22-.39,5.45,8.84,6.41,9.18.95,16.15.72,25.08-1.61,2.97-10.13,2.99-28.61-10.03-32.2-3.5-.96-6.14-.74-9.67-.58-15.08,3.1-14.99,14.48-14.22,27.98Z"/>
</svg>